<svg xmlns="http://www.w3.org/2000/svg" xmlns:xlink="http://www.w3.org/1999/xlink" width="124.542" height="124.541" viewBox="0 0 124.542 124.541">

<style>

.g1 {
  transform-origin: center;
  transform-box:fill-box ;
  animation-name: tranfX;
  animation-fill-mode: both;
	animation-duration: 1.5s;
	animation-iteration-count: infinite;
}




.g2{
  transform-origin: center;
  transform-box:fill-box ;
  animation-delay: .2s;
  animation-name: tranfX;
  animation-fill-mode: both;
	animation-duration: 1.5s;
	animation-iteration-count: infinite;
}

.g3{
  transform-origin: center;
  transform-box:fill-box ;
  animation-delay: .4s;
  animation-name: tranfX;
  animation-fill-mode: both;
	animation-duration: 1.5s;
	animation-iteration-count: infinite;
}

.g4{

  transform-origin: center;
  transform-box:fill-box ;
  animation-delay: .6s;
  animation-name: tranfX;
  animation-fill-mode: both;
	animation-duration: 1.5s;
	animation-iteration-count: infinite;
}

.g5{
  animation-delay: .8s;
  
    transform-origin: center;
  transform-box:fill-box ;
  animation-name: tranfX;
  animation-fill-mode: both;
  animation-duration: 1.5s;
  animation-iteration-count: infinite;
}
  
.g6{

    transform-origin: center;
  transform-box:fill-box ; 
   animation-delay: 1s;
  animation-name: tranfX;
  animation-fill-mode: both;
  animation-duration: 1.5s;
  animation-iteration-count: infinite;
}




.g7{

    transform-origin: center;
  transform-box:fill-box ; 
   animation-delay: 1.2s;
  animation-name: tranfX;
  animation-fill-mode: both;
  animation-duration: 1.5s;
  animation-iteration-count: infinite;
}




.g8{

    transform-origin: center;
  transform-box:fill-box ; 
   animation-delay: 1.4s;
  animation-name: tranfX;
  animation-fill-mode: both;
  animation-duration: 1.5s;
  animation-iteration-count: infinite;
}





.g9{

    transform-origin: center;
  transform-box:fill-box ; 
   animation-delay: 1.6s;
  animation-name: tranfX;
  animation-fill-mode: both;
  animation-duration: 1.5s;
  animation-iteration-count: infinite;
}





.g10{

    transform-origin: center;
  transform-box:fill-box ; 
   animation-delay: 1.8s;
  animation-name: tranfX;
  animation-fill-mode: both;
  animation-duration: 1.5s;
  animation-iteration-count: infinite;
}


.g11{

    transform-origin: center;
  transform-box:fill-box ; 
   animation-delay: 2s;
  animation-name: tranfX;
  animation-fill-mode: both;
  animation-duration: 1.5s;
  animation-iteration-count: infinite;
}






@keyframes tranfX {
	0% {  
      transform: scale(1) rotate(0deg);

 }
	50% {  
     transform: scale(.1) rotate(0deg);
 }
	100% {  
       transform: scale(1) rotate(0deg);
 }
}

  
</style>









  <defs>
    <clipPath id="clip-path">
      <rect id="Rectangle_50" data-name="Rectangle 50" width="124.542" height="124.541" fill="#0066b1"/>
    </clipPath>
  </defs>
  <g id="Group_75" data-name="Group 75" opacity="0.6">
    <g id="Group_74" data-name="Group 74" transform="translate(0)">
      <g id="Group_73" data-name="Group 73" clip-path="url(#clip-path)">
      <g class="g2">
        <path id="Path_508" data-name="Path 508" d="M345.041,533.7l-49.277,49.277a2.461,2.461,0,0,0,3.481,3.48l49.277-49.276a2.462,2.462,0,0,0-3.481-3.481" transform="translate(-224.702 -462.643)" fill="#0066b1"/>
      </g>

      <g class="g1"> 
        <path id="Path_509" data-name="Path 509" d="M320.961,558.258l-18.5,18.5a2.462,2.462,0,0,0,3.481,3.483l18.5-18.5a2.462,2.462,0,0,0-3.481-3.482" transform="translate(-207.219 -463.016)" fill="#0066b1"/>
      </g>

      <g class="g3"> 
          <path id="Path_510" data-name="Path 510" d="M362.623,515.852l-66.859,66.859a2.462,2.462,0,1,0,3.481,3.481l66.859-66.86a2.461,2.461,0,0,0-3.481-3.48" transform="translate(-242.285 -462.373)" fill="#0066b1"/>
      </g>
      
      <g class="g4"> 
        <path id="Path_511" data-name="Path 511" d="M376.593,501.722l-77.105,77.106a2.461,2.461,0,0,0,3.481,3.48l77.105-77.1a2.462,2.462,0,1,0-3.481-3.482" transform="translate(-259.922 -462.158)" fill="#0066b1"/>
      </g>
       
       <g class="g5"> 
        <path id="Path_512" data-name="Path 512" d="M388.251,489.982,305.6,572.632a2.462,2.462,0,0,0,3.481,3.482l82.651-82.651a2.462,2.462,0,1,0-3.481-3.481" transform="translate(-277.599 -461.98)" fill="#0066b1"/>
       </g>
      
      <g class="g6"> 

          <path id="Path_513" data-name="Path 513" d="M398.057,480.146l-84.429,84.428a2.462,2.462,0,0,0,3.481,3.481l84.428-84.429a2.462,2.462,0,0,0-3.481-3.481" transform="translate(-295.313 -461.831)" fill="#0066b1"/>
      </g>
       
      <g class="g7"> 
        <path id="Path_514" data-name="Path 514" d="M406.115,472.116l-82.651,82.651a2.461,2.461,0,0,0,3.481,3.48L409.6,475.6a2.462,2.462,0,0,0-3.481-3.481" transform="translate(-313.056 -461.709)" fill="#0066b1"/>
      </g>
       
       <g class="g8"> 
        <path id="Path_515" data-name="Path 515" d="M412.311,466l-77.105,77.1a2.462,2.462,0,0,0,3.481,3.482l77.105-77.105A2.462,2.462,0,1,0,412.311,466" transform="translate(-330.817 -461.616)" fill="#0066b1"/>
       </g>

       <g class="g9"> 
        <path id="Path_516" data-name="Path 516" d="M416.194,462.281,349.335,529.14a2.462,2.462,0,1,0,3.481,3.482l66.859-66.86a2.462,2.462,0,0,0-3.481-3.481" transform="translate(-348.613 -461.56)" fill="#0066b1"/>
       </g>

       <g class="g10"> 
        <path id="Path_517" data-name="Path 517" d="M416.465,462.281l-49.276,49.277a2.462,2.462,0,1,0,3.481,3.481l49.276-49.277a2.462,2.462,0,0,0-3.481-3.481" transform="translate(-366.467 -461.56)" fill="#0066b1"/>
       </g>

        <g class="g11"> 
        <path id="Path_518" data-name="Path 518" d="M410.239,468.978l-18.5,18.5a2.462,2.462,0,1,0,3.482,3.482l18.5-18.5a2.462,2.462,0,0,0-3.481-3.482" transform="translate(-384.423 -461.662)" fill="#0066b1"/>
      </g>
      </g>
    </g>
  </g>
</svg>
