<svg id="Group_68" data-name="Group 68" xmlns="http://www.w3.org/2000/svg" xmlns:xlink="http://www.w3.org/1999/xlink" width="282.675" height="282.678" viewBox="0 0 282.675 282.678">
  <defs>
    <clipPath id="clip-path">
      <rect id="Rectangle_48" data-name="Rectangle 48" width="282.675" height="282.678" fill="#fff"/>
    </clipPath>
  </defs>
  <g id="Group_67" data-name="Group 67" clip-path="url(#clip-path)">
    <path id="Path_70" data-name="Path 70" d="M868.85,779a.35.35,0,1,1,.35-.35.35.35,0,0,1-.35.35" transform="translate(-677 -776.131)" fill="#fff"/>
    <path id="Path_71" data-name="Path 71" d="M881.644,780a1.364,1.364,0,1,1,1.364-1.363A1.363,1.363,0,0,1,881.644,780" transform="translate(-702.41 -776.116)" fill="#fff"/>
    <path id="Path_72" data-name="Path 72" d="M894.442,780.721a2.1,2.1,0,1,1,2.1-2.1,2.1,2.1,0,0,1-2.1,2.1" transform="translate(-727.822 -776.104)" fill="#fff"/>
    <path id="Path_73" data-name="Path 73" d="M907.245,781.135a2.519,2.519,0,1,1,2.518-2.518,2.518,2.518,0,0,1-2.518,2.518" transform="translate(-753.241 -776.098)" fill="#fff"/>
    <path id="Path_74" data-name="Path 74" d="M920.054,781.135a2.519,2.519,0,1,1,2.518-2.518,2.519,2.519,0,0,1-2.518,2.518" transform="translate(-778.665 -776.098)" fill="#fff"/>
    <path id="Path_75" data-name="Path 75" d="M932.865,781.1a2.484,2.484,0,1,1,2.484-2.484,2.484,2.484,0,0,1-2.484,2.484" transform="translate(-804.091 -776.099)" fill="#fff"/>
    <path id="Path_76" data-name="Path 76" d="M945.68,780.687a2.064,2.064,0,1,1,2.064-2.064,2.063,2.063,0,0,1-2.064,2.064" transform="translate(-829.522 -776.105)" fill="#fff"/>
    <path id="Path_77" data-name="Path 77" d="M958.5,780a1.364,1.364,0,1,1,1.364-1.363A1.363,1.363,0,0,1,958.5,780" transform="translate(-854.958 -776.116)" fill="#fff"/>
    <path id="Path_78" data-name="Path 78" d="M971.326,779.034a.385.385,0,1,1,.385-.385.385.385,0,0,1-.385.385" transform="translate(-880.399 -776.131)" fill="#fff"/>
    <path id="Path_79" data-name="Path 79" d="M843.228,791.947a.489.489,0,1,1,.49-.489.489.489,0,0,1-.49.489" transform="translate(-626.148 -776.324)" fill="#fff"/>
    <path id="Path_80" data-name="Path 80" d="M856.012,793.566a2.134,2.134,0,1,1,2.134-2.134,2.134,2.134,0,0,1-2.134,2.134" transform="translate(-651.547 -776.298)" fill="#fff"/>
    <path id="Path_81" data-name="Path 81" d="M868.806,794.6a3.183,3.183,0,1,1,3.183-3.184,3.183,3.183,0,0,1-3.183,3.184" transform="translate(-676.956 -776.282)" fill="#fff"/>
    <path id="Path_82" data-name="Path 82" d="M881.615,794.668a3.253,3.253,0,1,1,3.253-3.253,3.253,3.253,0,0,1-3.253,3.253" transform="translate(-702.381 -776.281)" fill="#fff"/>
    <path id="Path_83" data-name="Path 83" d="M894.424,794.668a3.253,3.253,0,1,1,3.253-3.253,3.253,3.253,0,0,1-3.253,3.253" transform="translate(-727.804 -776.281)" fill="#fff"/>
    <path id="Path_84" data-name="Path 84" d="M907.234,794.668a3.253,3.253,0,1,1,3.253-3.253,3.253,3.253,0,0,1-3.253,3.253" transform="translate(-753.23 -776.281)" fill="#fff"/>
    <path id="Path_85" data-name="Path 85" d="M920.043,794.668a3.253,3.253,0,1,1,3.253-3.253,3.253,3.253,0,0,1-3.253,3.253" transform="translate(-778.654 -776.281)" fill="#fff"/>
    <path id="Path_86" data-name="Path 86" d="M932.853,794.668a3.253,3.253,0,1,1,3.253-3.253,3.253,3.253,0,0,1-3.253,3.253" transform="translate(-804.079 -776.281)" fill="#fff"/>
    <path id="Path_87" data-name="Path 87" d="M945.662,794.668a3.253,3.253,0,1,1,3.254-3.253,3.254,3.254,0,0,1-3.254,3.253" transform="translate(-829.504 -776.281)" fill="#fff"/>
    <path id="Path_88" data-name="Path 88" d="M958.472,794.668a3.253,3.253,0,1,1,3.253-3.253,3.253,3.253,0,0,1-3.253,3.253" transform="translate(-854.929 -776.281)" fill="#fff"/>
    <path id="Path_89" data-name="Path 89" d="M971.283,794.6a3.183,3.183,0,1,1,3.183-3.184,3.183,3.183,0,0,1-3.183,3.184" transform="translate(-880.355 -776.282)" fill="#fff"/>
    <path id="Path_90" data-name="Path 90" d="M984.108,793.6a2.169,2.169,0,1,1,2.169-2.169,2.169,2.169,0,0,1-2.169,2.169" transform="translate(-905.795 -776.298)" fill="#fff"/>
    <path id="Path_91" data-name="Path 91" d="M996.943,791.947a.489.489,0,1,1,.489-.489.489.489,0,0,1-.489.489" transform="translate(-931.246 -776.324)" fill="#fff"/>
    <path id="Path_92" data-name="Path 92" d="M830.405,805.583a1.329,1.329,0,1,1,1.33-1.33,1.329,1.329,0,0,1-1.33,1.33" transform="translate(-600.71 -776.505)" fill="#fff"/>
    <path id="Path_93" data-name="Path 93" d="M843.188,807.34a3.114,3.114,0,1,1,3.113-3.113,3.113,3.113,0,0,1-3.113,3.113" transform="translate(-626.108 -776.477)" fill="#fff"/>
    <path id="Path_94" data-name="Path 94" d="M855.995,807.478a3.253,3.253,0,1,1,3.253-3.253,3.253,3.253,0,0,1-3.253,3.253" transform="translate(-651.529 -776.475)" fill="#fff"/>
    <path id="Path_95" data-name="Path 95" d="M868.8,807.478a3.253,3.253,0,1,1,3.253-3.253,3.253,3.253,0,0,1-3.253,3.253" transform="translate(-676.955 -776.475)" fill="#fff"/>
    <path id="Path_96" data-name="Path 96" d="M881.615,807.478a3.253,3.253,0,1,1,3.253-3.253,3.253,3.253,0,0,1-3.253,3.253" transform="translate(-702.381 -776.475)" fill="#fff"/>
    <path id="Path_97" data-name="Path 97" d="M894.424,807.478a3.253,3.253,0,1,1,3.253-3.253,3.253,3.253,0,0,1-3.253,3.253" transform="translate(-727.804 -776.475)" fill="#fff"/>
    <path id="Path_98" data-name="Path 98" d="M907.234,807.478a3.253,3.253,0,1,1,3.253-3.253,3.253,3.253,0,0,1-3.253,3.253" transform="translate(-753.23 -776.475)" fill="#fff"/>
    <path id="Path_99" data-name="Path 99" d="M920.043,807.478a3.253,3.253,0,1,1,3.253-3.253,3.253,3.253,0,0,1-3.253,3.253" transform="translate(-778.654 -776.475)" fill="#fff"/>
    <path id="Path_100" data-name="Path 100" d="M932.853,807.478a3.253,3.253,0,1,1,3.253-3.253,3.253,3.253,0,0,1-3.253,3.253" transform="translate(-804.079 -776.475)" fill="#fff"/>
    <path id="Path_101" data-name="Path 101" d="M945.662,807.478a3.253,3.253,0,1,1,3.254-3.253,3.254,3.254,0,0,1-3.254,3.253" transform="translate(-829.504 -776.475)" fill="#fff"/>
    <path id="Path_102" data-name="Path 102" d="M958.472,807.478a3.253,3.253,0,1,1,3.253-3.253,3.253,3.253,0,0,1-3.253,3.253" transform="translate(-854.929 -776.475)" fill="#fff"/>
    <path id="Path_103" data-name="Path 103" d="M971.282,807.478a3.253,3.253,0,1,1,3.253-3.253,3.253,3.253,0,0,1-3.253,3.253" transform="translate(-880.354 -776.475)" fill="#fff"/>
    <path id="Path_104" data-name="Path 104" d="M984.091,807.478a3.253,3.253,0,1,1,3.253-3.253,3.253,3.253,0,0,1-3.253,3.253" transform="translate(-905.778 -776.475)" fill="#fff"/>
    <path id="Path_105" data-name="Path 105" d="M996.9,807.34a3.114,3.114,0,1,1,3.113-3.113,3.113,3.113,0,0,1-3.113,3.113" transform="translate(-931.206 -776.477)" fill="#fff"/>
    <path id="Path_106" data-name="Path 106" d="M1009.739,805.583a1.329,1.329,0,1,1,1.33-1.33,1.33,1.33,0,0,1-1.33,1.33" transform="translate(-956.657 -776.505)" fill="#fff"/>
    <path id="Path_107" data-name="Path 107" d="M817.593,818.7a1.644,1.644,0,1,1,1.644-1.645,1.644,1.644,0,0,1-1.644,1.645" transform="translate(-575.282 -776.694)" fill="#fff"/>
    <path id="Path_108" data-name="Path 108" d="M830.376,820.287a3.253,3.253,0,1,1,3.253-3.253,3.253,3.253,0,0,1-3.253,3.253" transform="translate(-600.68 -776.67)" fill="#fff"/>
    <path id="Path_109" data-name="Path 109" d="M843.186,820.287a3.253,3.253,0,1,1,3.253-3.253,3.253,3.253,0,0,1-3.253,3.253" transform="translate(-626.106 -776.67)" fill="#fff"/>
    <path id="Path_110" data-name="Path 110" d="M855.995,820.287a3.253,3.253,0,1,1,3.253-3.253,3.253,3.253,0,0,1-3.253,3.253" transform="translate(-651.529 -776.67)" fill="#fff"/>
    <path id="Path_111" data-name="Path 111" d="M868.8,820.287a3.253,3.253,0,1,1,3.253-3.253,3.253,3.253,0,0,1-3.253,3.253" transform="translate(-676.955 -776.67)" fill="#fff"/>
    <path id="Path_112" data-name="Path 112" d="M881.615,820.287a3.253,3.253,0,1,1,3.253-3.253,3.253,3.253,0,0,1-3.253,3.253" transform="translate(-702.381 -776.67)" fill="#fff"/>
    <path id="Path_113" data-name="Path 113" d="M894.424,820.287a3.253,3.253,0,1,1,3.253-3.253,3.253,3.253,0,0,1-3.253,3.253" transform="translate(-727.804 -776.67)" fill="#fff"/>
    <path id="Path_114" data-name="Path 114" d="M907.234,820.287a3.253,3.253,0,1,1,3.253-3.253,3.252,3.252,0,0,1-3.253,3.253" transform="translate(-753.23 -776.67)" fill="#fff"/>
    <path id="Path_115" data-name="Path 115" d="M920.043,820.287a3.253,3.253,0,1,1,3.253-3.253,3.253,3.253,0,0,1-3.253,3.253" transform="translate(-778.654 -776.67)" fill="#fff"/>
    <path id="Path_116" data-name="Path 116" d="M932.853,820.287a3.253,3.253,0,1,1,3.253-3.253,3.253,3.253,0,0,1-3.253,3.253" transform="translate(-804.079 -776.67)" fill="#fff"/>
    <path id="Path_117" data-name="Path 117" d="M945.662,820.287a3.253,3.253,0,1,1,3.254-3.253,3.254,3.254,0,0,1-3.254,3.253" transform="translate(-829.504 -776.67)" fill="#fff"/>
    <path id="Path_118" data-name="Path 118" d="M958.472,820.287a3.253,3.253,0,1,1,3.253-3.253,3.253,3.253,0,0,1-3.253,3.253" transform="translate(-854.929 -776.67)" fill="#fff"/>
    <path id="Path_119" data-name="Path 119" d="M971.282,820.287a3.253,3.253,0,1,1,3.253-3.253,3.253,3.253,0,0,1-3.253,3.253" transform="translate(-880.354 -776.67)" fill="#fff"/>
    <path id="Path_120" data-name="Path 120" d="M984.091,820.287a3.253,3.253,0,1,1,3.253-3.253,3.253,3.253,0,0,1-3.253,3.253" transform="translate(-905.778 -776.67)" fill="#fff"/>
    <path id="Path_121" data-name="Path 121" d="M996.9,820.287a3.253,3.253,0,1,1,3.253-3.253,3.253,3.253,0,0,1-3.253,3.253" transform="translate(-931.204 -776.67)" fill="#fff"/>
    <path id="Path_122" data-name="Path 122" d="M1009.71,820.287a3.253,3.253,0,1,1,3.253-3.253,3.253,3.253,0,0,1-3.253,3.253" transform="translate(-956.627 -776.67)" fill="#fff"/>
    <path id="Path_123" data-name="Path 123" d="M1022.543,818.806a1.749,1.749,0,1,1,1.749-1.749,1.749,1.749,0,0,1-1.749,1.749" transform="translate(-982.076 -776.693)" fill="#fff"/>
    <path id="Path_124" data-name="Path 124" d="M804.786,831.2a1.329,1.329,0,1,1,1.33-1.33,1.329,1.329,0,0,1-1.33,1.33" transform="translate(-549.86 -776.894)" fill="#fff"/>
    <path id="Path_125" data-name="Path 125" d="M817.567,833.1a3.253,3.253,0,1,1,3.253-3.253,3.252,3.252,0,0,1-3.253,3.253" transform="translate(-575.256 -776.864)" fill="#fff"/>
    <path id="Path_126" data-name="Path 126" d="M830.376,833.1a3.253,3.253,0,1,1,3.253-3.253,3.253,3.253,0,0,1-3.253,3.253" transform="translate(-600.68 -776.864)" fill="#fff"/>
    <path id="Path_127" data-name="Path 127" d="M843.186,833.1a3.253,3.253,0,1,1,3.253-3.253,3.253,3.253,0,0,1-3.253,3.253" transform="translate(-626.106 -776.864)" fill="#fff"/>
    <path id="Path_128" data-name="Path 128" d="M855.995,833.1a3.253,3.253,0,1,1,3.253-3.253,3.253,3.253,0,0,1-3.253,3.253" transform="translate(-651.529 -776.864)" fill="#fff"/>
    <path id="Path_129" data-name="Path 129" d="M868.8,833.1a3.253,3.253,0,1,1,3.253-3.253A3.253,3.253,0,0,1,868.8,833.1" transform="translate(-676.955 -776.864)" fill="#fff"/>
    <path id="Path_130" data-name="Path 130" d="M881.615,833.1a3.253,3.253,0,1,1,3.253-3.253,3.253,3.253,0,0,1-3.253,3.253" transform="translate(-702.381 -776.864)" fill="#fff"/>
    <path id="Path_131" data-name="Path 131" d="M894.424,833.1a3.253,3.253,0,1,1,3.253-3.253,3.253,3.253,0,0,1-3.253,3.253" transform="translate(-727.804 -776.864)" fill="#fff"/>
    <path id="Path_132" data-name="Path 132" d="M907.234,833.1a3.253,3.253,0,1,1,3.253-3.253,3.252,3.252,0,0,1-3.253,3.253" transform="translate(-753.23 -776.864)" fill="#fff"/>
    <path id="Path_133" data-name="Path 133" d="M920.043,833.1a3.253,3.253,0,1,1,3.253-3.253,3.253,3.253,0,0,1-3.253,3.253" transform="translate(-778.654 -776.864)" fill="#fff"/>
    <path id="Path_134" data-name="Path 134" d="M932.853,833.1a3.253,3.253,0,1,1,3.253-3.253,3.253,3.253,0,0,1-3.253,3.253" transform="translate(-804.079 -776.864)" fill="#fff"/>
    <path id="Path_135" data-name="Path 135" d="M945.662,833.1a3.253,3.253,0,1,1,3.254-3.253,3.254,3.254,0,0,1-3.254,3.253" transform="translate(-829.504 -776.864)" fill="#fff"/>
    <path id="Path_136" data-name="Path 136" d="M958.472,833.1a3.253,3.253,0,1,1,3.253-3.253,3.253,3.253,0,0,1-3.253,3.253" transform="translate(-854.929 -776.864)" fill="#fff"/>
    <path id="Path_137" data-name="Path 137" d="M971.282,833.1a3.253,3.253,0,1,1,3.253-3.253,3.253,3.253,0,0,1-3.253,3.253" transform="translate(-880.354 -776.864)" fill="#fff"/>
    <path id="Path_138" data-name="Path 138" d="M984.091,833.1a3.253,3.253,0,1,1,3.253-3.253,3.253,3.253,0,0,1-3.253,3.253" transform="translate(-905.778 -776.864)" fill="#fff"/>
    <path id="Path_139" data-name="Path 139" d="M996.9,833.1a3.253,3.253,0,1,1,3.253-3.253A3.253,3.253,0,0,1,996.9,833.1" transform="translate(-931.204 -776.864)" fill="#fff"/>
    <path id="Path_140" data-name="Path 140" d="M1009.71,833.1a3.253,3.253,0,1,1,3.253-3.253,3.253,3.253,0,0,1-3.253,3.253" transform="translate(-956.627 -776.864)" fill="#fff"/>
    <path id="Path_141" data-name="Path 141" d="M1022.52,833.1a3.253,3.253,0,1,1,3.253-3.253,3.253,3.253,0,0,1-3.253,3.253" transform="translate(-982.053 -776.864)" fill="#fff"/>
    <path id="Path_142" data-name="Path 142" d="M1035.359,831.168a1.295,1.295,0,1,1,1.294-1.294,1.294,1.294,0,0,1-1.294,1.294" transform="translate(-1007.507 -776.894)" fill="#fff"/>
    <path id="Path_143" data-name="Path 143" d="M791.99,843.185a.489.489,0,1,1,.49-.489.489.489,0,0,1-.49.489" transform="translate(-524.449 -777.101)" fill="#fff"/>
    <path id="Path_144" data-name="Path 144" d="M804.759,845.768a3.114,3.114,0,1,1,3.113-3.113,3.113,3.113,0,0,1-3.113,3.113" transform="translate(-549.833 -777.06)" fill="#fff"/>
    <path id="Path_145" data-name="Path 145" d="M817.567,845.906a3.253,3.253,0,1,1,3.253-3.253,3.252,3.252,0,0,1-3.253,3.253" transform="translate(-575.256 -777.058)" fill="#fff"/>
    <path id="Path_146" data-name="Path 146" d="M830.376,845.906a3.253,3.253,0,1,1,3.253-3.253,3.253,3.253,0,0,1-3.253,3.253" transform="translate(-600.68 -777.058)" fill="#fff"/>
    <path id="Path_147" data-name="Path 147" d="M843.186,845.906a3.253,3.253,0,1,1,3.253-3.253,3.253,3.253,0,0,1-3.253,3.253" transform="translate(-626.106 -777.058)" fill="#fff"/>
    <path id="Path_148" data-name="Path 148" d="M855.995,845.906a3.253,3.253,0,1,1,3.253-3.253,3.253,3.253,0,0,1-3.253,3.253" transform="translate(-651.529 -777.058)" fill="#fff"/>
    <path id="Path_149" data-name="Path 149" d="M868.8,845.906a3.253,3.253,0,1,1,3.253-3.253,3.253,3.253,0,0,1-3.253,3.253" transform="translate(-676.955 -777.058)" fill="#fff"/>
    <path id="Path_150" data-name="Path 150" d="M881.615,845.906a3.253,3.253,0,1,1,3.253-3.253,3.253,3.253,0,0,1-3.253,3.253" transform="translate(-702.381 -777.058)" fill="#fff"/>
    <path id="Path_151" data-name="Path 151" d="M894.424,845.906a3.253,3.253,0,1,1,3.253-3.253,3.253,3.253,0,0,1-3.253,3.253" transform="translate(-727.804 -777.058)" fill="#fff"/>
    <path id="Path_152" data-name="Path 152" d="M907.234,845.906a3.253,3.253,0,1,1,3.253-3.253,3.253,3.253,0,0,1-3.253,3.253" transform="translate(-753.23 -777.058)" fill="#fff"/>
    <path id="Path_153" data-name="Path 153" d="M920.043,845.906a3.253,3.253,0,1,1,3.253-3.253,3.253,3.253,0,0,1-3.253,3.253" transform="translate(-778.654 -777.058)" fill="#fff"/>
    <path id="Path_154" data-name="Path 154" d="M932.853,845.906a3.253,3.253,0,1,1,3.253-3.253,3.253,3.253,0,0,1-3.253,3.253" transform="translate(-804.079 -777.058)" fill="#fff"/>
    <path id="Path_155" data-name="Path 155" d="M945.662,845.906a3.253,3.253,0,1,1,3.254-3.253,3.254,3.254,0,0,1-3.254,3.253" transform="translate(-829.504 -777.058)" fill="#fff"/>
    <path id="Path_156" data-name="Path 156" d="M958.472,845.906a3.253,3.253,0,1,1,3.253-3.253,3.253,3.253,0,0,1-3.253,3.253" transform="translate(-854.929 -777.058)" fill="#fff"/>
    <path id="Path_157" data-name="Path 157" d="M971.282,845.906a3.253,3.253,0,1,1,3.253-3.253,3.253,3.253,0,0,1-3.253,3.253" transform="translate(-880.354 -777.058)" fill="#fff"/>
    <path id="Path_158" data-name="Path 158" d="M984.091,845.906a3.253,3.253,0,1,1,3.253-3.253,3.253,3.253,0,0,1-3.253,3.253" transform="translate(-905.778 -777.058)" fill="#fff"/>
    <path id="Path_159" data-name="Path 159" d="M996.9,845.906a3.253,3.253,0,1,1,3.253-3.253,3.253,3.253,0,0,1-3.253,3.253" transform="translate(-931.204 -777.058)" fill="#fff"/>
    <path id="Path_160" data-name="Path 160" d="M1009.71,845.906a3.253,3.253,0,1,1,3.253-3.253,3.253,3.253,0,0,1-3.253,3.253" transform="translate(-956.627 -777.058)" fill="#fff"/>
    <path id="Path_161" data-name="Path 161" d="M1022.52,845.906a3.253,3.253,0,1,1,3.253-3.253,3.253,3.253,0,0,1-3.253,3.253" transform="translate(-982.053 -777.058)" fill="#fff"/>
    <path id="Path_162" data-name="Path 162" d="M1035.331,845.8a3.149,3.149,0,1,1,3.148-3.148,3.148,3.148,0,0,1-3.148,3.148" transform="translate(-1007.479 -777.06)" fill="#fff"/>
    <path id="Path_163" data-name="Path 163" d="M1048.181,843.185a.489.489,0,1,1,.49-.489.489.489,0,0,1-.49.489" transform="translate(-1032.945 -777.101)" fill="#fff"/>
    <path id="Path_164" data-name="Path 164" d="M791.965,857.613a2.134,2.134,0,1,1,2.134-2.134,2.134,2.134,0,0,1-2.134,2.134" transform="translate(-524.424 -777.27)" fill="#fff"/>
    <path id="Path_165" data-name="Path 165" d="M804.757,858.716a3.253,3.253,0,1,1,3.253-3.253,3.253,3.253,0,0,1-3.253,3.253" transform="translate(-549.831 -777.253)" fill="#fff"/>
    <path id="Path_166" data-name="Path 166" d="M817.567,858.716a3.253,3.253,0,1,1,3.253-3.253,3.252,3.252,0,0,1-3.253,3.253" transform="translate(-575.256 -777.253)" fill="#fff"/>
    <path id="Path_167" data-name="Path 167" d="M830.376,858.716a3.253,3.253,0,1,1,3.253-3.253,3.253,3.253,0,0,1-3.253,3.253" transform="translate(-600.68 -777.253)" fill="#fff"/>
    <path id="Path_168" data-name="Path 168" d="M843.186,858.716a3.253,3.253,0,1,1,3.253-3.253,3.253,3.253,0,0,1-3.253,3.253" transform="translate(-626.106 -777.253)" fill="#fff"/>
    <path id="Path_169" data-name="Path 169" d="M855.995,858.716a3.253,3.253,0,1,1,3.253-3.253,3.253,3.253,0,0,1-3.253,3.253" transform="translate(-651.529 -777.253)" fill="#fff"/>
    <path id="Path_170" data-name="Path 170" d="M868.8,858.716a3.253,3.253,0,1,1,3.253-3.253,3.253,3.253,0,0,1-3.253,3.253" transform="translate(-676.955 -777.253)" fill="#fff"/>
    <path id="Path_171" data-name="Path 171" d="M881.615,858.716a3.253,3.253,0,1,1,3.253-3.253,3.253,3.253,0,0,1-3.253,3.253" transform="translate(-702.381 -777.253)" fill="#fff"/>
    <path id="Path_172" data-name="Path 172" d="M894.424,858.716a3.253,3.253,0,1,1,3.253-3.253,3.253,3.253,0,0,1-3.253,3.253" transform="translate(-727.804 -777.253)" fill="#fff"/>
    <path id="Path_173" data-name="Path 173" d="M907.234,858.716a3.253,3.253,0,1,1,3.253-3.253,3.253,3.253,0,0,1-3.253,3.253" transform="translate(-753.23 -777.253)" fill="#fff"/>
    <path id="Path_174" data-name="Path 174" d="M920.043,858.716a3.253,3.253,0,1,1,3.253-3.253,3.253,3.253,0,0,1-3.253,3.253" transform="translate(-778.654 -777.253)" fill="#fff"/>
    <path id="Path_175" data-name="Path 175" d="M932.853,858.716a3.253,3.253,0,1,1,3.253-3.253,3.253,3.253,0,0,1-3.253,3.253" transform="translate(-804.079 -777.253)" fill="#fff"/>
    <path id="Path_176" data-name="Path 176" d="M945.662,858.716a3.253,3.253,0,1,1,3.254-3.253,3.254,3.254,0,0,1-3.254,3.253" transform="translate(-829.504 -777.253)" fill="#fff"/>
    <path id="Path_177" data-name="Path 177" d="M958.472,858.716a3.253,3.253,0,1,1,3.253-3.253,3.253,3.253,0,0,1-3.253,3.253" transform="translate(-854.929 -777.253)" fill="#fff"/>
    <path id="Path_178" data-name="Path 178" d="M971.282,858.716a3.253,3.253,0,1,1,3.253-3.253,3.253,3.253,0,0,1-3.253,3.253" transform="translate(-880.354 -777.253)" fill="#fff"/>
    <path id="Path_179" data-name="Path 179" d="M984.091,858.716a3.253,3.253,0,1,1,3.253-3.253,3.253,3.253,0,0,1-3.253,3.253" transform="translate(-905.778 -777.253)" fill="#fff"/>
    <path id="Path_180" data-name="Path 180" d="M996.9,858.716a3.253,3.253,0,1,1,3.253-3.253,3.253,3.253,0,0,1-3.253,3.253" transform="translate(-931.204 -777.253)" fill="#fff"/>
    <path id="Path_181" data-name="Path 181" d="M1009.71,858.716a3.253,3.253,0,1,1,3.253-3.253,3.253,3.253,0,0,1-3.253,3.253" transform="translate(-956.627 -777.253)" fill="#fff"/>
    <path id="Path_182" data-name="Path 182" d="M1022.52,858.716a3.253,3.253,0,1,1,3.253-3.253,3.253,3.253,0,0,1-3.253,3.253" transform="translate(-982.053 -777.253)" fill="#fff"/>
    <path id="Path_183" data-name="Path 183" d="M1035.329,858.716a3.253,3.253,0,1,1,3.253-3.253,3.253,3.253,0,0,1-3.253,3.253" transform="translate(-1007.477 -777.253)" fill="#fff"/>
    <path id="Path_184" data-name="Path 184" d="M1048.156,857.613a2.134,2.134,0,1,1,2.134-2.134,2.134,2.134,0,0,1-2.134,2.134" transform="translate(-1032.92 -777.27)" fill="#fff"/>
    <path id="Path_185" data-name="Path 185" d="M779.183,868.666a.35.35,0,1,1,.35-.35.35.35,0,0,1-.35.35" transform="translate(-499.026 -777.492)" fill="#fff"/>
    <path id="Path_186" data-name="Path 186" d="M791.949,871.457a3.183,3.183,0,1,1,3.183-3.184,3.183,3.183,0,0,1-3.183,3.184" transform="translate(-524.408 -777.448)" fill="#fff"/>
    <path id="Path_187" data-name="Path 187" d="M804.757,871.525a3.253,3.253,0,1,1,3.253-3.252,3.252,3.252,0,0,1-3.253,3.252" transform="translate(-549.831 -777.447)" fill="#fff"/>
    <path id="Path_188" data-name="Path 188" d="M817.567,871.525a3.253,3.253,0,1,1,3.253-3.252,3.252,3.252,0,0,1-3.253,3.252" transform="translate(-575.256 -777.447)" fill="#fff"/>
    <path id="Path_189" data-name="Path 189" d="M830.376,871.525a3.253,3.253,0,1,1,3.253-3.252,3.252,3.252,0,0,1-3.253,3.252" transform="translate(-600.68 -777.447)" fill="#fff"/>
    <path id="Path_190" data-name="Path 190" d="M843.186,871.525a3.253,3.253,0,1,1,3.253-3.252,3.252,3.252,0,0,1-3.253,3.252" transform="translate(-626.106 -777.447)" fill="#fff"/>
    <path id="Path_191" data-name="Path 191" d="M855.995,871.525a3.253,3.253,0,1,1,3.253-3.252,3.252,3.252,0,0,1-3.253,3.252" transform="translate(-651.529 -777.447)" fill="#fff"/>
    <path id="Path_192" data-name="Path 192" d="M868.8,871.525a3.253,3.253,0,1,1,3.253-3.252,3.252,3.252,0,0,1-3.253,3.252" transform="translate(-676.955 -777.447)" fill="#fff"/>
    <path id="Path_193" data-name="Path 193" d="M881.615,871.525a3.253,3.253,0,1,1,3.253-3.252,3.252,3.252,0,0,1-3.253,3.252" transform="translate(-702.381 -777.447)" fill="#fff"/>
    <path id="Path_194" data-name="Path 194" d="M894.424,871.525a3.253,3.253,0,1,1,3.253-3.252,3.252,3.252,0,0,1-3.253,3.252" transform="translate(-727.804 -777.447)" fill="#fff"/>
    <path id="Path_195" data-name="Path 195" d="M907.234,871.525a3.253,3.253,0,1,1,3.253-3.252,3.252,3.252,0,0,1-3.253,3.252" transform="translate(-753.23 -777.447)" fill="#fff"/>
    <path id="Path_196" data-name="Path 196" d="M920.043,871.525a3.253,3.253,0,1,1,3.253-3.252,3.252,3.252,0,0,1-3.253,3.252" transform="translate(-778.654 -777.447)" fill="#fff"/>
    <path id="Path_197" data-name="Path 197" d="M932.853,871.525a3.253,3.253,0,1,1,3.253-3.252,3.252,3.252,0,0,1-3.253,3.252" transform="translate(-804.079 -777.447)" fill="#fff"/>
    <path id="Path_198" data-name="Path 198" d="M945.662,871.525a3.253,3.253,0,1,1,3.254-3.252,3.253,3.253,0,0,1-3.254,3.252" transform="translate(-829.504 -777.447)" fill="#fff"/>
    <path id="Path_199" data-name="Path 199" d="M958.472,871.525a3.253,3.253,0,1,1,3.253-3.252,3.252,3.252,0,0,1-3.253,3.252" transform="translate(-854.929 -777.447)" fill="#fff"/>
    <path id="Path_200" data-name="Path 200" d="M971.282,871.525a3.253,3.253,0,1,1,3.253-3.252,3.252,3.252,0,0,1-3.253,3.252" transform="translate(-880.354 -777.447)" fill="#fff"/>
    <path id="Path_201" data-name="Path 201" d="M984.091,871.525a3.253,3.253,0,1,1,3.253-3.252,3.252,3.252,0,0,1-3.253,3.252" transform="translate(-905.778 -777.447)" fill="#fff"/>
    <path id="Path_202" data-name="Path 202" d="M996.9,871.525a3.253,3.253,0,1,1,3.253-3.252,3.252,3.252,0,0,1-3.253,3.252" transform="translate(-931.204 -777.447)" fill="#fff"/>
    <path id="Path_203" data-name="Path 203" d="M1009.71,871.525a3.253,3.253,0,1,1,3.253-3.252,3.252,3.252,0,0,1-3.253,3.252" transform="translate(-956.627 -777.447)" fill="#fff"/>
    <path id="Path_204" data-name="Path 204" d="M1022.52,871.525a3.253,3.253,0,1,1,3.253-3.252,3.252,3.252,0,0,1-3.253,3.252" transform="translate(-982.053 -777.447)" fill="#fff"/>
    <path id="Path_205" data-name="Path 205" d="M1035.329,871.525a3.253,3.253,0,1,1,3.253-3.252,3.252,3.252,0,0,1-3.253,3.252" transform="translate(-1007.477 -777.447)" fill="#fff"/>
    <path id="Path_206" data-name="Path 206" d="M1048.141,871.457a3.183,3.183,0,1,1,3.183-3.184,3.184,3.184,0,0,1-3.183,3.184" transform="translate(-1032.905 -777.448)" fill="#fff"/>
    <path id="Path_207" data-name="Path 207" d="M1060.992,868.7a.385.385,0,1,1,.386-.385.386.386,0,0,1-.386.385" transform="translate(-1058.371 -777.491)" fill="#fff"/>
    <path id="Path_208" data-name="Path 208" d="M779.167,882.475a1.365,1.365,0,1,1,1.364-1.364,1.364,1.364,0,0,1-1.364,1.364" transform="translate(-499.01 -777.67)" fill="#fff"/>
    <path id="Path_209" data-name="Path 209" d="M791.948,884.335a3.253,3.253,0,1,1,3.253-3.253,3.253,3.253,0,0,1-3.253,3.253" transform="translate(-524.407 -777.641)" fill="#fff"/>
    <path id="Path_210" data-name="Path 210" d="M804.757,884.335a3.253,3.253,0,1,1,3.253-3.253,3.252,3.252,0,0,1-3.253,3.253" transform="translate(-549.831 -777.641)" fill="#fff"/>
    <path id="Path_211" data-name="Path 211" d="M817.567,884.335a3.253,3.253,0,1,1,3.253-3.253,3.252,3.252,0,0,1-3.253,3.253" transform="translate(-575.256 -777.641)" fill="#fff"/>
    <path id="Path_212" data-name="Path 212" d="M830.376,884.335a3.253,3.253,0,1,1,3.253-3.253,3.253,3.253,0,0,1-3.253,3.253" transform="translate(-600.68 -777.641)" fill="#fff"/>
    <path id="Path_213" data-name="Path 213" d="M843.186,884.335a3.253,3.253,0,1,1,3.253-3.253,3.253,3.253,0,0,1-3.253,3.253" transform="translate(-626.106 -777.641)" fill="#fff"/>
    <path id="Path_214" data-name="Path 214" d="M855.995,884.335a3.253,3.253,0,1,1,3.253-3.253,3.253,3.253,0,0,1-3.253,3.253" transform="translate(-651.529 -777.641)" fill="#fff"/>
    <path id="Path_215" data-name="Path 215" d="M868.8,884.335a3.253,3.253,0,1,1,3.253-3.253,3.252,3.252,0,0,1-3.253,3.253" transform="translate(-676.955 -777.641)" fill="#fff"/>
    <path id="Path_216" data-name="Path 216" d="M881.615,884.335a3.253,3.253,0,1,1,3.253-3.253,3.252,3.252,0,0,1-3.253,3.253" transform="translate(-702.381 -777.641)" fill="#fff"/>
    <path id="Path_217" data-name="Path 217" d="M894.424,884.335a3.253,3.253,0,1,1,3.253-3.253,3.252,3.252,0,0,1-3.253,3.253" transform="translate(-727.804 -777.641)" fill="#fff"/>
    <path id="Path_218" data-name="Path 218" d="M907.234,884.335a3.253,3.253,0,1,1,3.253-3.253,3.252,3.252,0,0,1-3.253,3.253" transform="translate(-753.23 -777.641)" fill="#fff"/>
    <path id="Path_219" data-name="Path 219" d="M920.043,884.335a3.253,3.253,0,1,1,3.253-3.253,3.253,3.253,0,0,1-3.253,3.253" transform="translate(-778.654 -777.641)" fill="#fff"/>
    <path id="Path_220" data-name="Path 220" d="M932.853,884.335a3.253,3.253,0,1,1,3.253-3.253,3.253,3.253,0,0,1-3.253,3.253" transform="translate(-804.079 -777.641)" fill="#fff"/>
    <path id="Path_221" data-name="Path 221" d="M945.662,884.335a3.253,3.253,0,1,1,3.254-3.253,3.254,3.254,0,0,1-3.254,3.253" transform="translate(-829.504 -777.641)" fill="#fff"/>
    <path id="Path_222" data-name="Path 222" d="M958.472,884.335a3.253,3.253,0,1,1,3.253-3.253,3.253,3.253,0,0,1-3.253,3.253" transform="translate(-854.929 -777.641)" fill="#fff"/>
    <path id="Path_223" data-name="Path 223" d="M971.282,884.335a3.253,3.253,0,1,1,3.253-3.253,3.253,3.253,0,0,1-3.253,3.253" transform="translate(-880.354 -777.641)" fill="#fff"/>
    <path id="Path_224" data-name="Path 224" d="M984.091,884.335a3.253,3.253,0,1,1,3.253-3.253,3.253,3.253,0,0,1-3.253,3.253" transform="translate(-905.778 -777.641)" fill="#fff"/>
    <path id="Path_225" data-name="Path 225" d="M996.9,884.335a3.253,3.253,0,1,1,3.253-3.253,3.253,3.253,0,0,1-3.253,3.253" transform="translate(-931.204 -777.641)" fill="#fff"/>
    <path id="Path_226" data-name="Path 226" d="M1009.71,884.335a3.253,3.253,0,1,1,3.253-3.253,3.253,3.253,0,0,1-3.253,3.253" transform="translate(-956.627 -777.641)" fill="#fff"/>
    <path id="Path_227" data-name="Path 227" d="M1022.52,884.335a3.253,3.253,0,1,1,3.253-3.253,3.253,3.253,0,0,1-3.253,3.253" transform="translate(-982.053 -777.641)" fill="#fff"/>
    <path id="Path_228" data-name="Path 228" d="M1035.329,884.335a3.253,3.253,0,1,1,3.253-3.253,3.253,3.253,0,0,1-3.253,3.253" transform="translate(-1007.477 -777.641)" fill="#fff"/>
    <path id="Path_229" data-name="Path 229" d="M1048.139,884.335a3.253,3.253,0,1,1,3.253-3.253,3.253,3.253,0,0,1-3.253,3.253" transform="translate(-1032.902 -777.641)" fill="#fff"/>
    <path id="Path_230" data-name="Path 230" d="M1060.976,882.51a1.4,1.4,0,1,1,1.4-1.4,1.4,1.4,0,0,1-1.4,1.4" transform="translate(-1058.356 -777.67)" fill="#fff"/>
    <path id="Path_231" data-name="Path 231" d="M779.156,896.008a2.1,2.1,0,1,1,2.1-2.1,2.1,2.1,0,0,1-2.1,2.1" transform="translate(-498.999 -777.853)" fill="#fff"/>
    <path id="Path_232" data-name="Path 232" d="M791.948,897.145a3.253,3.253,0,1,1,3.253-3.253,3.253,3.253,0,0,1-3.253,3.253" transform="translate(-524.407 -777.836)" fill="#fff"/>
    <path id="Path_233" data-name="Path 233" d="M804.757,897.145a3.253,3.253,0,1,1,3.253-3.253,3.252,3.252,0,0,1-3.253,3.253" transform="translate(-549.831 -777.836)" fill="#fff"/>
    <path id="Path_234" data-name="Path 234" d="M817.567,897.145a3.253,3.253,0,1,1,3.253-3.253,3.252,3.252,0,0,1-3.253,3.253" transform="translate(-575.256 -777.836)" fill="#fff"/>
    <path id="Path_235" data-name="Path 235" d="M830.376,897.145a3.253,3.253,0,1,1,3.253-3.253,3.253,3.253,0,0,1-3.253,3.253" transform="translate(-600.68 -777.836)" fill="#fff"/>
    <path id="Path_236" data-name="Path 236" d="M843.186,897.145a3.253,3.253,0,1,1,3.253-3.253,3.253,3.253,0,0,1-3.253,3.253" transform="translate(-626.106 -777.836)" fill="#fff"/>
    <path id="Path_237" data-name="Path 237" d="M855.995,897.145a3.253,3.253,0,1,1,3.253-3.253,3.253,3.253,0,0,1-3.253,3.253" transform="translate(-651.529 -777.836)" fill="#fff"/>
    <path id="Path_238" data-name="Path 238" d="M868.8,897.145a3.253,3.253,0,1,1,3.253-3.253,3.252,3.252,0,0,1-3.253,3.253" transform="translate(-676.955 -777.836)" fill="#fff"/>
    <path id="Path_239" data-name="Path 239" d="M881.615,897.145a3.253,3.253,0,1,1,3.253-3.253,3.252,3.252,0,0,1-3.253,3.253" transform="translate(-702.381 -777.836)" fill="#fff"/>
    <path id="Path_240" data-name="Path 240" d="M894.424,897.145a3.253,3.253,0,1,1,3.253-3.253,3.252,3.252,0,0,1-3.253,3.253" transform="translate(-727.804 -777.836)" fill="#fff"/>
    <path id="Path_241" data-name="Path 241" d="M907.234,897.145a3.253,3.253,0,1,1,3.253-3.253,3.252,3.252,0,0,1-3.253,3.253" transform="translate(-753.23 -777.836)" fill="#fff"/>
    <path id="Path_242" data-name="Path 242" d="M920.043,897.145a3.253,3.253,0,1,1,3.253-3.253,3.253,3.253,0,0,1-3.253,3.253" transform="translate(-778.654 -777.836)" fill="#fff"/>
    <path id="Path_243" data-name="Path 243" d="M932.853,897.145a3.253,3.253,0,1,1,3.253-3.253,3.253,3.253,0,0,1-3.253,3.253" transform="translate(-804.079 -777.836)" fill="#fff"/>
    <path id="Path_244" data-name="Path 244" d="M945.662,897.145a3.253,3.253,0,1,1,3.254-3.253,3.254,3.254,0,0,1-3.254,3.253" transform="translate(-829.504 -777.836)" fill="#fff"/>
    <path id="Path_245" data-name="Path 245" d="M958.472,897.145a3.253,3.253,0,1,1,3.253-3.253,3.253,3.253,0,0,1-3.253,3.253" transform="translate(-854.929 -777.836)" fill="#fff"/>
    <path id="Path_246" data-name="Path 246" d="M971.282,897.145a3.253,3.253,0,1,1,3.253-3.253,3.253,3.253,0,0,1-3.253,3.253" transform="translate(-880.354 -777.836)" fill="#fff"/>
    <path id="Path_247" data-name="Path 247" d="M984.091,897.145a3.253,3.253,0,1,1,3.253-3.253,3.253,3.253,0,0,1-3.253,3.253" transform="translate(-905.778 -777.836)" fill="#fff"/>
    <path id="Path_248" data-name="Path 248" d="M996.9,897.145a3.253,3.253,0,1,1,3.253-3.253,3.253,3.253,0,0,1-3.253,3.253" transform="translate(-931.204 -777.836)" fill="#fff"/>
    <path id="Path_249" data-name="Path 249" d="M1009.71,897.145a3.253,3.253,0,1,1,3.253-3.253,3.253,3.253,0,0,1-3.253,3.253" transform="translate(-956.627 -777.836)" fill="#fff"/>
    <path id="Path_250" data-name="Path 250" d="M1022.52,897.145a3.253,3.253,0,1,1,3.253-3.253,3.253,3.253,0,0,1-3.253,3.253" transform="translate(-982.053 -777.836)" fill="#fff"/>
    <path id="Path_251" data-name="Path 251" d="M1035.329,897.145a3.253,3.253,0,1,1,3.253-3.253,3.253,3.253,0,0,1-3.253,3.253" transform="translate(-1007.477 -777.836)" fill="#fff"/>
    <path id="Path_252" data-name="Path 252" d="M1048.139,897.145a3.253,3.253,0,1,1,3.253-3.253,3.253,3.253,0,0,1-3.253,3.253" transform="translate(-1032.902 -777.836)" fill="#fff"/>
    <path id="Path_253" data-name="Path 253" d="M1060.965,896.008a2.1,2.1,0,1,1,2.1-2.1,2.1,2.1,0,0,1-2.1,2.1" transform="translate(-1058.345 -777.853)" fill="#fff"/>
    <path id="Path_254" data-name="Path 254" d="M779.149,909.23a2.519,2.519,0,1,1,2.518-2.518,2.518,2.518,0,0,1-2.518,2.518" transform="translate(-498.992 -778.041)" fill="#fff"/>
    <path id="Path_255" data-name="Path 255" d="M791.948,909.954A3.253,3.253,0,1,1,795.2,906.7a3.253,3.253,0,0,1-3.253,3.253" transform="translate(-524.407 -778.03)" fill="#fff"/>
    <path id="Path_256" data-name="Path 256" d="M804.757,909.954a3.253,3.253,0,1,1,3.253-3.253,3.253,3.253,0,0,1-3.253,3.253" transform="translate(-549.831 -778.03)" fill="#fff"/>
    <path id="Path_257" data-name="Path 257" d="M817.567,909.954a3.253,3.253,0,1,1,3.253-3.253,3.252,3.252,0,0,1-3.253,3.253" transform="translate(-575.256 -778.03)" fill="#fff"/>
    <path id="Path_258" data-name="Path 258" d="M830.376,909.954a3.253,3.253,0,1,1,3.253-3.253,3.253,3.253,0,0,1-3.253,3.253" transform="translate(-600.68 -778.03)" fill="#fff"/>
    <path id="Path_259" data-name="Path 259" d="M843.186,909.954a3.253,3.253,0,1,1,3.253-3.253,3.253,3.253,0,0,1-3.253,3.253" transform="translate(-626.106 -778.03)" fill="#fff"/>
    <path id="Path_260" data-name="Path 260" d="M855.995,909.954a3.253,3.253,0,1,1,3.253-3.253,3.253,3.253,0,0,1-3.253,3.253" transform="translate(-651.529 -778.03)" fill="#fff"/>
    <path id="Path_261" data-name="Path 261" d="M868.8,909.954a3.253,3.253,0,1,1,3.253-3.253,3.253,3.253,0,0,1-3.253,3.253" transform="translate(-676.955 -778.03)" fill="#fff"/>
    <path id="Path_262" data-name="Path 262" d="M881.615,909.954a3.253,3.253,0,1,1,3.253-3.253,3.253,3.253,0,0,1-3.253,3.253" transform="translate(-702.381 -778.03)" fill="#fff"/>
    <path id="Path_263" data-name="Path 263" d="M894.424,909.954a3.253,3.253,0,1,1,3.253-3.253,3.253,3.253,0,0,1-3.253,3.253" transform="translate(-727.804 -778.03)" fill="#fff"/>
    <path id="Path_264" data-name="Path 264" d="M907.234,909.954a3.253,3.253,0,1,1,3.253-3.253,3.253,3.253,0,0,1-3.253,3.253" transform="translate(-753.23 -778.03)" fill="#fff"/>
    <path id="Path_265" data-name="Path 265" d="M920.043,909.954A3.253,3.253,0,1,1,923.3,906.7a3.253,3.253,0,0,1-3.253,3.253" transform="translate(-778.654 -778.03)" fill="#fff"/>
    <path id="Path_266" data-name="Path 266" d="M932.853,909.954a3.253,3.253,0,1,1,3.253-3.253,3.253,3.253,0,0,1-3.253,3.253" transform="translate(-804.079 -778.03)" fill="#fff"/>
    <path id="Path_267" data-name="Path 267" d="M945.662,909.954a3.253,3.253,0,1,1,3.254-3.253,3.254,3.254,0,0,1-3.254,3.253" transform="translate(-829.504 -778.03)" fill="#fff"/>
    <path id="Path_268" data-name="Path 268" d="M958.472,909.954a3.253,3.253,0,1,1,3.253-3.253,3.253,3.253,0,0,1-3.253,3.253" transform="translate(-854.929 -778.03)" fill="#fff"/>
    <path id="Path_269" data-name="Path 269" d="M971.282,909.954a3.253,3.253,0,1,1,3.253-3.253,3.253,3.253,0,0,1-3.253,3.253" transform="translate(-880.354 -778.03)" fill="#fff"/>
    <path id="Path_270" data-name="Path 270" d="M984.091,909.954a3.253,3.253,0,1,1,3.253-3.253,3.253,3.253,0,0,1-3.253,3.253" transform="translate(-905.778 -778.03)" fill="#fff"/>
    <path id="Path_271" data-name="Path 271" d="M996.9,909.954a3.253,3.253,0,1,1,3.253-3.253,3.253,3.253,0,0,1-3.253,3.253" transform="translate(-931.204 -778.03)" fill="#fff"/>
    <path id="Path_272" data-name="Path 272" d="M1009.71,909.954a3.253,3.253,0,1,1,3.253-3.253,3.253,3.253,0,0,1-3.253,3.253" transform="translate(-956.627 -778.03)" fill="#fff"/>
    <path id="Path_273" data-name="Path 273" d="M1022.52,909.954a3.253,3.253,0,1,1,3.253-3.253,3.253,3.253,0,0,1-3.253,3.253" transform="translate(-982.053 -778.03)" fill="#fff"/>
    <path id="Path_274" data-name="Path 274" d="M1035.329,909.954a3.253,3.253,0,1,1,3.253-3.253,3.253,3.253,0,0,1-3.253,3.253" transform="translate(-1007.477 -778.03)" fill="#fff"/>
    <path id="Path_275" data-name="Path 275" d="M1048.139,909.954a3.253,3.253,0,1,1,3.253-3.253,3.253,3.253,0,0,1-3.253,3.253" transform="translate(-1032.902 -778.03)" fill="#fff"/>
    <path id="Path_276" data-name="Path 276" d="M1060.958,909.265a2.554,2.554,0,1,1,2.554-2.554,2.553,2.553,0,0,1-2.554,2.554" transform="translate(-1058.338 -778.041)" fill="#fff"/>
    <path id="Path_277" data-name="Path 277" d="M779.149,922.04a2.519,2.519,0,1,1,2.518-2.518,2.518,2.518,0,0,1-2.518,2.518" transform="translate(-498.992 -778.236)" fill="#fff"/>
    <path id="Path_278" data-name="Path 278" d="M791.948,922.764a3.253,3.253,0,1,1,3.253-3.253,3.253,3.253,0,0,1-3.253,3.253" transform="translate(-524.407 -778.224)" fill="#fff"/>
    <path id="Path_279" data-name="Path 279" d="M804.757,922.764a3.253,3.253,0,1,1,3.253-3.253,3.253,3.253,0,0,1-3.253,3.253" transform="translate(-549.831 -778.224)" fill="#fff"/>
    <path id="Path_280" data-name="Path 280" d="M817.567,922.764a3.253,3.253,0,1,1,3.253-3.253,3.252,3.252,0,0,1-3.253,3.253" transform="translate(-575.256 -778.224)" fill="#fff"/>
    <path id="Path_281" data-name="Path 281" d="M830.376,922.764a3.253,3.253,0,1,1,3.253-3.253,3.253,3.253,0,0,1-3.253,3.253" transform="translate(-600.68 -778.224)" fill="#fff"/>
    <path id="Path_282" data-name="Path 282" d="M843.186,922.764a3.253,3.253,0,1,1,3.253-3.253,3.253,3.253,0,0,1-3.253,3.253" transform="translate(-626.106 -778.224)" fill="#fff"/>
    <path id="Path_283" data-name="Path 283" d="M855.995,922.764a3.253,3.253,0,1,1,3.253-3.253,3.253,3.253,0,0,1-3.253,3.253" transform="translate(-651.529 -778.224)" fill="#fff"/>
    <path id="Path_284" data-name="Path 284" d="M868.8,922.764a3.253,3.253,0,1,1,3.253-3.253,3.253,3.253,0,0,1-3.253,3.253" transform="translate(-676.955 -778.224)" fill="#fff"/>
    <path id="Path_285" data-name="Path 285" d="M881.615,922.764a3.253,3.253,0,1,1,3.253-3.253,3.253,3.253,0,0,1-3.253,3.253" transform="translate(-702.381 -778.224)" fill="#fff"/>
    <path id="Path_286" data-name="Path 286" d="M894.424,922.764a3.253,3.253,0,1,1,3.253-3.253,3.253,3.253,0,0,1-3.253,3.253" transform="translate(-727.804 -778.224)" fill="#fff"/>
    <path id="Path_287" data-name="Path 287" d="M907.234,922.764a3.253,3.253,0,1,1,3.253-3.253,3.252,3.252,0,0,1-3.253,3.253" transform="translate(-753.23 -778.224)" fill="#fff"/>
    <path id="Path_288" data-name="Path 288" d="M920.043,922.764a3.253,3.253,0,1,1,3.253-3.253,3.253,3.253,0,0,1-3.253,3.253" transform="translate(-778.654 -778.224)" fill="#fff"/>
    <path id="Path_289" data-name="Path 289" d="M932.853,922.764a3.253,3.253,0,1,1,3.253-3.253,3.253,3.253,0,0,1-3.253,3.253" transform="translate(-804.079 -778.224)" fill="#fff"/>
    <path id="Path_290" data-name="Path 290" d="M945.662,922.764a3.253,3.253,0,1,1,3.254-3.253,3.254,3.254,0,0,1-3.254,3.253" transform="translate(-829.504 -778.224)" fill="#fff"/>
    <path id="Path_291" data-name="Path 291" d="M958.472,922.764a3.253,3.253,0,1,1,3.253-3.253,3.253,3.253,0,0,1-3.253,3.253" transform="translate(-854.929 -778.224)" fill="#fff"/>
    <path id="Path_292" data-name="Path 292" d="M971.282,922.764a3.253,3.253,0,1,1,3.253-3.253,3.253,3.253,0,0,1-3.253,3.253" transform="translate(-880.354 -778.224)" fill="#fff"/>
    <path id="Path_293" data-name="Path 293" d="M984.091,922.764a3.253,3.253,0,1,1,3.253-3.253,3.253,3.253,0,0,1-3.253,3.253" transform="translate(-905.778 -778.224)" fill="#fff"/>
    <path id="Path_294" data-name="Path 294" d="M996.9,922.764a3.253,3.253,0,1,1,3.253-3.253,3.253,3.253,0,0,1-3.253,3.253" transform="translate(-931.204 -778.224)" fill="#fff"/>
    <path id="Path_295" data-name="Path 295" d="M1009.71,922.764a3.253,3.253,0,1,1,3.253-3.253,3.253,3.253,0,0,1-3.253,3.253" transform="translate(-956.627 -778.224)" fill="#fff"/>
    <path id="Path_296" data-name="Path 296" d="M1022.52,922.764a3.253,3.253,0,1,1,3.253-3.253,3.253,3.253,0,0,1-3.253,3.253" transform="translate(-982.053 -778.224)" fill="#fff"/>
    <path id="Path_297" data-name="Path 297" d="M1035.329,922.764a3.253,3.253,0,1,1,3.253-3.253,3.253,3.253,0,0,1-3.253,3.253" transform="translate(-1007.477 -778.224)" fill="#fff"/>
    <path id="Path_298" data-name="Path 298" d="M1048.139,922.764a3.253,3.253,0,1,1,3.253-3.253,3.253,3.253,0,0,1-3.253,3.253" transform="translate(-1032.902 -778.224)" fill="#fff"/>
    <path id="Path_299" data-name="Path 299" d="M1060.956,922.144a2.624,2.624,0,1,1,2.625-2.624,2.624,2.624,0,0,1-2.625,2.624" transform="translate(-1058.336 -778.234)" fill="#fff"/>
    <path id="Path_300" data-name="Path 300" d="M779.15,934.815a2.484,2.484,0,1,1,2.484-2.484,2.484,2.484,0,0,1-2.484,2.484" transform="translate(-498.993 -778.43)" fill="#fff"/>
    <path id="Path_301" data-name="Path 301" d="M791.948,935.573a3.253,3.253,0,1,1,3.253-3.253,3.253,3.253,0,0,1-3.253,3.253" transform="translate(-524.407 -778.419)" fill="#fff"/>
    <path id="Path_302" data-name="Path 302" d="M804.757,935.573a3.253,3.253,0,1,1,3.253-3.253,3.252,3.252,0,0,1-3.253,3.253" transform="translate(-549.831 -778.419)" fill="#fff"/>
    <path id="Path_303" data-name="Path 303" d="M817.567,935.573a3.253,3.253,0,1,1,3.253-3.253,3.252,3.252,0,0,1-3.253,3.253" transform="translate(-575.256 -778.419)" fill="#fff"/>
    <path id="Path_304" data-name="Path 304" d="M830.376,935.573a3.253,3.253,0,1,1,3.253-3.253,3.253,3.253,0,0,1-3.253,3.253" transform="translate(-600.68 -778.419)" fill="#fff"/>
    <path id="Path_305" data-name="Path 305" d="M843.186,935.573a3.253,3.253,0,1,1,3.253-3.253,3.253,3.253,0,0,1-3.253,3.253" transform="translate(-626.106 -778.419)" fill="#fff"/>
    <path id="Path_306" data-name="Path 306" d="M855.995,935.573a3.253,3.253,0,1,1,3.253-3.253,3.253,3.253,0,0,1-3.253,3.253" transform="translate(-651.529 -778.419)" fill="#fff"/>
    <path id="Path_307" data-name="Path 307" d="M868.8,935.573a3.253,3.253,0,1,1,3.253-3.253,3.252,3.252,0,0,1-3.253,3.253" transform="translate(-676.955 -778.419)" fill="#fff"/>
    <path id="Path_308" data-name="Path 308" d="M881.615,935.573a3.253,3.253,0,1,1,3.253-3.253,3.252,3.252,0,0,1-3.253,3.253" transform="translate(-702.381 -778.419)" fill="#fff"/>
    <path id="Path_309" data-name="Path 309" d="M894.424,935.573a3.253,3.253,0,1,1,3.253-3.253,3.252,3.252,0,0,1-3.253,3.253" transform="translate(-727.804 -778.419)" fill="#fff"/>
    <path id="Path_310" data-name="Path 310" d="M907.234,935.573a3.253,3.253,0,1,1,3.253-3.253,3.252,3.252,0,0,1-3.253,3.253" transform="translate(-753.23 -778.419)" fill="#fff"/>
    <path id="Path_311" data-name="Path 311" d="M920.043,935.573a3.253,3.253,0,1,1,3.253-3.253,3.253,3.253,0,0,1-3.253,3.253" transform="translate(-778.654 -778.419)" fill="#fff"/>
    <path id="Path_312" data-name="Path 312" d="M932.853,935.573a3.253,3.253,0,1,1,3.253-3.253,3.253,3.253,0,0,1-3.253,3.253" transform="translate(-804.079 -778.419)" fill="#fff"/>
    <path id="Path_313" data-name="Path 313" d="M945.662,935.573a3.253,3.253,0,1,1,3.254-3.253,3.254,3.254,0,0,1-3.254,3.253" transform="translate(-829.504 -778.419)" fill="#fff"/>
    <path id="Path_314" data-name="Path 314" d="M958.472,935.573a3.253,3.253,0,1,1,3.253-3.253,3.253,3.253,0,0,1-3.253,3.253" transform="translate(-854.929 -778.419)" fill="#fff"/>
    <path id="Path_315" data-name="Path 315" d="M971.282,935.573a3.253,3.253,0,1,1,3.253-3.253,3.253,3.253,0,0,1-3.253,3.253" transform="translate(-880.354 -778.419)" fill="#fff"/>
    <path id="Path_316" data-name="Path 316" d="M984.091,935.573a3.253,3.253,0,1,1,3.253-3.253,3.253,3.253,0,0,1-3.253,3.253" transform="translate(-905.778 -778.419)" fill="#fff"/>
    <path id="Path_317" data-name="Path 317" d="M996.9,935.573a3.253,3.253,0,1,1,3.253-3.253,3.253,3.253,0,0,1-3.253,3.253" transform="translate(-931.204 -778.419)" fill="#fff"/>
    <path id="Path_318" data-name="Path 318" d="M1009.71,935.573a3.253,3.253,0,1,1,3.253-3.253,3.253,3.253,0,0,1-3.253,3.253" transform="translate(-956.627 -778.419)" fill="#fff"/>
    <path id="Path_319" data-name="Path 319" d="M1022.52,935.573a3.253,3.253,0,1,1,3.253-3.253,3.253,3.253,0,0,1-3.253,3.253" transform="translate(-982.053 -778.419)" fill="#fff"/>
    <path id="Path_320" data-name="Path 320" d="M1035.329,935.573a3.253,3.253,0,1,1,3.253-3.253,3.253,3.253,0,0,1-3.253,3.253" transform="translate(-1007.477 -778.419)" fill="#fff"/>
    <path id="Path_321" data-name="Path 321" d="M1048.139,935.573a3.253,3.253,0,1,1,3.253-3.253,3.253,3.253,0,0,1-3.253,3.253" transform="translate(-1032.902 -778.419)" fill="#fff"/>
    <path id="Path_322" data-name="Path 322" d="M1060.959,934.849a2.519,2.519,0,1,1,2.518-2.518,2.518,2.518,0,0,1-2.518,2.518" transform="translate(-1058.339 -778.43)" fill="#fff"/>
    <path id="Path_323" data-name="Path 323" d="M779.156,947.211a2.064,2.064,0,1,1,2.064-2.064,2.064,2.064,0,0,1-2.064,2.064" transform="translate(-498.999 -778.631)" fill="#fff"/>
    <path id="Path_324" data-name="Path 324" d="M791.948,948.383a3.253,3.253,0,1,1,3.253-3.253,3.252,3.252,0,0,1-3.253,3.253" transform="translate(-524.407 -778.613)" fill="#fff"/>
    <path id="Path_325" data-name="Path 325" d="M804.757,948.383a3.253,3.253,0,1,1,3.253-3.253,3.252,3.252,0,0,1-3.253,3.253" transform="translate(-549.831 -778.613)" fill="#fff"/>
    <path id="Path_326" data-name="Path 326" d="M817.567,948.383a3.253,3.253,0,1,1,3.253-3.253,3.252,3.252,0,0,1-3.253,3.253" transform="translate(-575.256 -778.613)" fill="#fff"/>
    <path id="Path_327" data-name="Path 327" d="M830.376,948.383a3.253,3.253,0,1,1,3.253-3.253,3.252,3.252,0,0,1-3.253,3.253" transform="translate(-600.68 -778.613)" fill="#fff"/>
    <path id="Path_328" data-name="Path 328" d="M843.186,948.383a3.253,3.253,0,1,1,3.253-3.253,3.252,3.252,0,0,1-3.253,3.253" transform="translate(-626.106 -778.613)" fill="#fff"/>
    <path id="Path_329" data-name="Path 329" d="M855.995,948.383a3.253,3.253,0,1,1,3.253-3.253,3.253,3.253,0,0,1-3.253,3.253" transform="translate(-651.529 -778.613)" fill="#fff"/>
    <path id="Path_330" data-name="Path 330" d="M868.8,948.383a3.253,3.253,0,1,1,3.253-3.253,3.252,3.252,0,0,1-3.253,3.253" transform="translate(-676.955 -778.613)" fill="#fff"/>
    <path id="Path_331" data-name="Path 331" d="M881.615,948.383a3.253,3.253,0,1,1,3.253-3.253,3.252,3.252,0,0,1-3.253,3.253" transform="translate(-702.381 -778.613)" fill="#fff"/>
    <path id="Path_332" data-name="Path 332" d="M894.424,948.383a3.253,3.253,0,1,1,3.253-3.253,3.252,3.252,0,0,1-3.253,3.253" transform="translate(-727.804 -778.613)" fill="#fff"/>
    <path id="Path_333" data-name="Path 333" d="M907.234,948.383a3.253,3.253,0,1,1,3.253-3.253,3.252,3.252,0,0,1-3.253,3.253" transform="translate(-753.23 -778.613)" fill="#fff"/>
    <path id="Path_334" data-name="Path 334" d="M920.043,948.383a3.253,3.253,0,1,1,3.253-3.253,3.253,3.253,0,0,1-3.253,3.253" transform="translate(-778.654 -778.613)" fill="#fff"/>
    <path id="Path_335" data-name="Path 335" d="M932.853,948.383a3.253,3.253,0,1,1,3.253-3.253,3.253,3.253,0,0,1-3.253,3.253" transform="translate(-804.079 -778.613)" fill="#fff"/>
    <path id="Path_336" data-name="Path 336" d="M945.662,948.383a3.253,3.253,0,1,1,3.254-3.253,3.254,3.254,0,0,1-3.254,3.253" transform="translate(-829.504 -778.613)" fill="#fff"/>
    <path id="Path_337" data-name="Path 337" d="M958.472,948.383a3.253,3.253,0,1,1,3.253-3.253,3.253,3.253,0,0,1-3.253,3.253" transform="translate(-854.929 -778.613)" fill="#fff"/>
    <path id="Path_338" data-name="Path 338" d="M971.282,948.383a3.253,3.253,0,1,1,3.253-3.253,3.253,3.253,0,0,1-3.253,3.253" transform="translate(-880.354 -778.613)" fill="#fff"/>
    <path id="Path_339" data-name="Path 339" d="M984.091,948.383a3.253,3.253,0,1,1,3.253-3.253,3.253,3.253,0,0,1-3.253,3.253" transform="translate(-905.778 -778.613)" fill="#fff"/>
    <path id="Path_340" data-name="Path 340" d="M996.9,948.383a3.253,3.253,0,1,1,3.253-3.253,3.253,3.253,0,0,1-3.253,3.253" transform="translate(-931.204 -778.613)" fill="#fff"/>
    <path id="Path_341" data-name="Path 341" d="M1009.71,948.383a3.253,3.253,0,1,1,3.253-3.253,3.253,3.253,0,0,1-3.253,3.253" transform="translate(-956.627 -778.613)" fill="#fff"/>
    <path id="Path_342" data-name="Path 342" d="M1022.52,948.383a3.253,3.253,0,1,1,3.253-3.253,3.253,3.253,0,0,1-3.253,3.253" transform="translate(-982.053 -778.613)" fill="#fff"/>
    <path id="Path_343" data-name="Path 343" d="M1035.329,948.383a3.253,3.253,0,1,1,3.253-3.253,3.253,3.253,0,0,1-3.253,3.253" transform="translate(-1007.477 -778.613)" fill="#fff"/>
    <path id="Path_344" data-name="Path 344" d="M1048.139,948.383a3.253,3.253,0,1,1,3.253-3.253,3.253,3.253,0,0,1-3.253,3.253" transform="translate(-1032.902 -778.613)" fill="#fff"/>
    <path id="Path_345" data-name="Path 345" d="M1060.965,947.246a2.1,2.1,0,1,1,2.1-2.1,2.1,2.1,0,0,1-2.1,2.1" transform="translate(-1058.345 -778.631)" fill="#fff"/>
    <path id="Path_346" data-name="Path 346" d="M779.167,959.332a1.364,1.364,0,1,1,1.364-1.363,1.363,1.363,0,0,1-1.364,1.363" transform="translate(-499.01 -778.836)" fill="#fff"/>
    <path id="Path_347" data-name="Path 347" d="M791.948,961.192a3.253,3.253,0,1,1,3.253-3.252,3.252,3.252,0,0,1-3.253,3.252" transform="translate(-524.407 -778.807)" fill="#fff"/>
    <path id="Path_348" data-name="Path 348" d="M804.757,961.192a3.253,3.253,0,1,1,3.253-3.252,3.252,3.252,0,0,1-3.253,3.252" transform="translate(-549.831 -778.807)" fill="#fff"/>
    <path id="Path_349" data-name="Path 349" d="M817.567,961.192a3.253,3.253,0,1,1,3.253-3.252,3.252,3.252,0,0,1-3.253,3.252" transform="translate(-575.256 -778.807)" fill="#fff"/>
    <path id="Path_350" data-name="Path 350" d="M830.376,961.192a3.253,3.253,0,1,1,3.253-3.252,3.252,3.252,0,0,1-3.253,3.252" transform="translate(-600.68 -778.807)" fill="#fff"/>
    <path id="Path_351" data-name="Path 351" d="M843.186,961.192a3.253,3.253,0,1,1,3.253-3.252,3.252,3.252,0,0,1-3.253,3.252" transform="translate(-626.106 -778.807)" fill="#fff"/>
    <path id="Path_352" data-name="Path 352" d="M855.995,961.192a3.253,3.253,0,1,1,3.253-3.252,3.252,3.252,0,0,1-3.253,3.252" transform="translate(-651.529 -778.807)" fill="#fff"/>
    <path id="Path_353" data-name="Path 353" d="M868.8,961.192a3.253,3.253,0,1,1,3.253-3.252,3.252,3.252,0,0,1-3.253,3.252" transform="translate(-676.955 -778.807)" fill="#fff"/>
    <path id="Path_354" data-name="Path 354" d="M881.615,961.192a3.253,3.253,0,1,1,3.253-3.252,3.252,3.252,0,0,1-3.253,3.252" transform="translate(-702.381 -778.807)" fill="#fff"/>
    <path id="Path_355" data-name="Path 355" d="M894.424,961.192a3.253,3.253,0,1,1,3.253-3.252,3.252,3.252,0,0,1-3.253,3.252" transform="translate(-727.804 -778.807)" fill="#fff"/>
    <path id="Path_356" data-name="Path 356" d="M907.234,961.192a3.253,3.253,0,1,1,3.253-3.252,3.252,3.252,0,0,1-3.253,3.252" transform="translate(-753.23 -778.807)" fill="#fff"/>
    <path id="Path_357" data-name="Path 357" d="M920.043,961.192a3.253,3.253,0,1,1,3.253-3.252,3.252,3.252,0,0,1-3.253,3.252" transform="translate(-778.654 -778.807)" fill="#fff"/>
    <path id="Path_358" data-name="Path 358" d="M932.853,961.192a3.253,3.253,0,1,1,3.253-3.252,3.252,3.252,0,0,1-3.253,3.252" transform="translate(-804.079 -778.807)" fill="#fff"/>
    <path id="Path_359" data-name="Path 359" d="M945.662,961.192a3.253,3.253,0,1,1,3.254-3.252,3.253,3.253,0,0,1-3.254,3.252" transform="translate(-829.504 -778.807)" fill="#fff"/>
    <path id="Path_360" data-name="Path 360" d="M958.472,961.192a3.253,3.253,0,1,1,3.253-3.252,3.252,3.252,0,0,1-3.253,3.252" transform="translate(-854.929 -778.807)" fill="#fff"/>
    <path id="Path_361" data-name="Path 361" d="M971.282,961.192a3.253,3.253,0,1,1,3.253-3.252,3.252,3.252,0,0,1-3.253,3.252" transform="translate(-880.354 -778.807)" fill="#fff"/>
    <path id="Path_362" data-name="Path 362" d="M984.091,961.192a3.253,3.253,0,1,1,3.253-3.252,3.252,3.252,0,0,1-3.253,3.252" transform="translate(-905.778 -778.807)" fill="#fff"/>
    <path id="Path_363" data-name="Path 363" d="M996.9,961.192a3.253,3.253,0,1,1,3.253-3.252,3.252,3.252,0,0,1-3.253,3.252" transform="translate(-931.204 -778.807)" fill="#fff"/>
    <path id="Path_364" data-name="Path 364" d="M1009.71,961.192a3.253,3.253,0,1,1,3.253-3.252,3.252,3.252,0,0,1-3.253,3.252" transform="translate(-956.627 -778.807)" fill="#fff"/>
    <path id="Path_365" data-name="Path 365" d="M1022.52,961.192a3.253,3.253,0,1,1,3.253-3.252,3.252,3.252,0,0,1-3.253,3.252" transform="translate(-982.053 -778.807)" fill="#fff"/>
    <path id="Path_366" data-name="Path 366" d="M1035.329,961.192a3.253,3.253,0,1,1,3.253-3.252,3.252,3.252,0,0,1-3.253,3.252" transform="translate(-1007.477 -778.807)" fill="#fff"/>
    <path id="Path_367" data-name="Path 367" d="M1048.139,961.192a3.253,3.253,0,1,1,3.253-3.252,3.252,3.252,0,0,1-3.253,3.252" transform="translate(-1032.902 -778.807)" fill="#fff"/>
    <path id="Path_368" data-name="Path 368" d="M1060.976,959.367a1.4,1.4,0,1,1,1.4-1.4,1.4,1.4,0,0,1-1.4,1.4" transform="translate(-1058.356 -778.836)" fill="#fff"/>
    <path id="Path_369" data-name="Path 369" d="M779.182,971.177a.385.385,0,1,1,.385-.385.385.385,0,0,1-.385.385" transform="translate(-499.025 -779.046)" fill="#fff"/>
    <path id="Path_370" data-name="Path 370" d="M791.949,973.933a3.184,3.184,0,1,1,3.183-3.183,3.183,3.183,0,0,1-3.183,3.183" transform="translate(-524.408 -779.003)" fill="#fff"/>
    <path id="Path_371" data-name="Path 371" d="M804.757,974a3.253,3.253,0,1,1,3.253-3.253A3.252,3.252,0,0,1,804.757,974" transform="translate(-549.831 -779.002)" fill="#fff"/>
    <path id="Path_372" data-name="Path 372" d="M817.567,974a3.253,3.253,0,1,1,3.253-3.253A3.252,3.252,0,0,1,817.567,974" transform="translate(-575.256 -779.002)" fill="#fff"/>
    <path id="Path_373" data-name="Path 373" d="M830.376,974a3.253,3.253,0,1,1,3.253-3.253A3.253,3.253,0,0,1,830.376,974" transform="translate(-600.68 -779.002)" fill="#fff"/>
    <path id="Path_374" data-name="Path 374" d="M843.186,974a3.253,3.253,0,1,1,3.253-3.253A3.253,3.253,0,0,1,843.186,974" transform="translate(-626.106 -779.002)" fill="#fff"/>
    <path id="Path_375" data-name="Path 375" d="M855.995,974a3.253,3.253,0,1,1,3.253-3.253A3.253,3.253,0,0,1,855.995,974" transform="translate(-651.529 -779.002)" fill="#fff"/>
    <path id="Path_376" data-name="Path 376" d="M868.8,974a3.253,3.253,0,1,1,3.253-3.253A3.252,3.252,0,0,1,868.8,974" transform="translate(-676.955 -779.002)" fill="#fff"/>
    <path id="Path_377" data-name="Path 377" d="M881.615,974a3.253,3.253,0,1,1,3.253-3.253A3.252,3.252,0,0,1,881.615,974" transform="translate(-702.381 -779.002)" fill="#fff"/>
    <path id="Path_378" data-name="Path 378" d="M894.424,974a3.253,3.253,0,1,1,3.253-3.253A3.252,3.252,0,0,1,894.424,974" transform="translate(-727.804 -779.002)" fill="#fff"/>
    <path id="Path_379" data-name="Path 379" d="M907.234,974a3.253,3.253,0,1,1,3.253-3.253A3.252,3.252,0,0,1,907.234,974" transform="translate(-753.23 -779.002)" fill="#fff"/>
    <path id="Path_380" data-name="Path 380" d="M920.043,974a3.253,3.253,0,1,1,3.253-3.253A3.253,3.253,0,0,1,920.043,974" transform="translate(-778.654 -779.002)" fill="#fff"/>
    <path id="Path_381" data-name="Path 381" d="M932.853,974a3.253,3.253,0,1,1,3.253-3.253A3.253,3.253,0,0,1,932.853,974" transform="translate(-804.079 -779.002)" fill="#fff"/>
    <path id="Path_382" data-name="Path 382" d="M945.662,974a3.253,3.253,0,1,1,3.254-3.253A3.254,3.254,0,0,1,945.662,974" transform="translate(-829.504 -779.002)" fill="#fff"/>
    <path id="Path_383" data-name="Path 383" d="M958.472,974a3.253,3.253,0,1,1,3.253-3.253A3.253,3.253,0,0,1,958.472,974" transform="translate(-854.929 -779.002)" fill="#fff"/>
    <path id="Path_384" data-name="Path 384" d="M971.282,974a3.253,3.253,0,1,1,3.253-3.253A3.253,3.253,0,0,1,971.282,974" transform="translate(-880.354 -779.002)" fill="#fff"/>
    <path id="Path_385" data-name="Path 385" d="M984.091,974a3.253,3.253,0,1,1,3.253-3.253A3.253,3.253,0,0,1,984.091,974" transform="translate(-905.778 -779.002)" fill="#fff"/>
    <path id="Path_386" data-name="Path 386" d="M996.9,974a3.253,3.253,0,1,1,3.253-3.253A3.253,3.253,0,0,1,996.9,974" transform="translate(-931.204 -779.002)" fill="#fff"/>
    <path id="Path_387" data-name="Path 387" d="M1009.71,974a3.253,3.253,0,1,1,3.253-3.253A3.253,3.253,0,0,1,1009.71,974" transform="translate(-956.627 -779.002)" fill="#fff"/>
    <path id="Path_388" data-name="Path 388" d="M1022.52,974a3.253,3.253,0,1,1,3.253-3.253A3.253,3.253,0,0,1,1022.52,974" transform="translate(-982.053 -779.002)" fill="#fff"/>
    <path id="Path_389" data-name="Path 389" d="M1035.329,974a3.253,3.253,0,1,1,3.253-3.253,3.253,3.253,0,0,1-3.253,3.253" transform="translate(-1007.477 -779.002)" fill="#fff"/>
    <path id="Path_390" data-name="Path 390" d="M1048.139,973.968a3.218,3.218,0,1,1,3.218-3.218,3.218,3.218,0,0,1-3.218,3.218" transform="translate(-1032.903 -779.002)" fill="#fff"/>
    <path id="Path_391" data-name="Path 391" d="M1060.991,971.212a.42.42,0,1,1,.42-.419.419.419,0,0,1-.42.419" transform="translate(-1058.371 -779.045)" fill="#fff"/>
    <path id="Path_392" data-name="Path 392" d="M791.965,985.744a2.169,2.169,0,1,1,2.169-2.169,2.169,2.169,0,0,1-2.169,2.169" transform="translate(-524.424 -779.213)" fill="#fff"/>
    <path id="Path_393" data-name="Path 393" d="M804.757,986.812a3.253,3.253,0,1,1,3.253-3.253,3.252,3.252,0,0,1-3.253,3.253" transform="translate(-549.831 -779.196)" fill="#fff"/>
    <path id="Path_394" data-name="Path 394" d="M817.567,986.812a3.253,3.253,0,1,1,3.253-3.253,3.252,3.252,0,0,1-3.253,3.253" transform="translate(-575.256 -779.196)" fill="#fff"/>
    <path id="Path_395" data-name="Path 395" d="M830.376,986.812a3.253,3.253,0,1,1,3.253-3.253,3.253,3.253,0,0,1-3.253,3.253" transform="translate(-600.68 -779.196)" fill="#fff"/>
    <path id="Path_396" data-name="Path 396" d="M843.186,986.812a3.253,3.253,0,1,1,3.253-3.253,3.253,3.253,0,0,1-3.253,3.253" transform="translate(-626.106 -779.196)" fill="#fff"/>
    <path id="Path_397" data-name="Path 397" d="M855.995,986.812a3.253,3.253,0,1,1,3.253-3.253,3.253,3.253,0,0,1-3.253,3.253" transform="translate(-651.529 -779.196)" fill="#fff"/>
    <path id="Path_398" data-name="Path 398" d="M868.8,986.812a3.253,3.253,0,1,1,3.253-3.253,3.252,3.252,0,0,1-3.253,3.253" transform="translate(-676.955 -779.196)" fill="#fff"/>
    <path id="Path_399" data-name="Path 399" d="M881.615,986.812a3.253,3.253,0,1,1,3.253-3.253,3.252,3.252,0,0,1-3.253,3.253" transform="translate(-702.381 -779.196)" fill="#fff"/>
    <path id="Path_400" data-name="Path 400" d="M894.424,986.812a3.253,3.253,0,1,1,3.253-3.253,3.252,3.252,0,0,1-3.253,3.253" transform="translate(-727.804 -779.196)" fill="#fff"/>
    <path id="Path_401" data-name="Path 401" d="M907.234,986.812a3.253,3.253,0,1,1,3.253-3.253,3.252,3.252,0,0,1-3.253,3.253" transform="translate(-753.23 -779.196)" fill="#fff"/>
    <path id="Path_402" data-name="Path 402" d="M920.043,986.812a3.253,3.253,0,1,1,3.253-3.253,3.253,3.253,0,0,1-3.253,3.253" transform="translate(-778.654 -779.196)" fill="#fff"/>
    <path id="Path_403" data-name="Path 403" d="M932.853,986.812a3.253,3.253,0,1,1,3.253-3.253,3.253,3.253,0,0,1-3.253,3.253" transform="translate(-804.079 -779.196)" fill="#fff"/>
    <path id="Path_404" data-name="Path 404" d="M945.662,986.812a3.253,3.253,0,1,1,3.254-3.253,3.254,3.254,0,0,1-3.254,3.253" transform="translate(-829.504 -779.196)" fill="#fff"/>
    <path id="Path_405" data-name="Path 405" d="M958.472,986.812a3.253,3.253,0,1,1,3.253-3.253,3.253,3.253,0,0,1-3.253,3.253" transform="translate(-854.929 -779.196)" fill="#fff"/>
    <path id="Path_406" data-name="Path 406" d="M971.282,986.812a3.253,3.253,0,1,1,3.253-3.253,3.253,3.253,0,0,1-3.253,3.253" transform="translate(-880.354 -779.196)" fill="#fff"/>
    <path id="Path_407" data-name="Path 407" d="M984.091,986.812a3.253,3.253,0,1,1,3.253-3.253,3.253,3.253,0,0,1-3.253,3.253" transform="translate(-905.778 -779.196)" fill="#fff"/>
    <path id="Path_408" data-name="Path 408" d="M996.9,986.812a3.253,3.253,0,1,1,3.253-3.253,3.253,3.253,0,0,1-3.253,3.253" transform="translate(-931.204 -779.196)" fill="#fff"/>
    <path id="Path_409" data-name="Path 409" d="M1009.71,986.812a3.253,3.253,0,1,1,3.253-3.253,3.253,3.253,0,0,1-3.253,3.253" transform="translate(-956.627 -779.196)" fill="#fff"/>
    <path id="Path_410" data-name="Path 410" d="M1022.52,986.812a3.253,3.253,0,1,1,3.253-3.253,3.253,3.253,0,0,1-3.253,3.253" transform="translate(-982.053 -779.196)" fill="#fff"/>
    <path id="Path_411" data-name="Path 411" d="M1035.329,986.812a3.253,3.253,0,1,1,3.253-3.253,3.253,3.253,0,0,1-3.253,3.253" transform="translate(-1007.477 -779.196)" fill="#fff"/>
    <path id="Path_412" data-name="Path 412" d="M1048.156,985.744a2.169,2.169,0,1,1,2.169-2.169,2.169,2.169,0,0,1-2.169,2.169" transform="translate(-1032.919 -779.213)" fill="#fff"/>
    <path id="Path_413" data-name="Path 413" d="M791.99,996.9a.489.489,0,1,1,.49-.489.489.489,0,0,1-.49.489" transform="translate(-524.449 -779.433)" fill="#fff"/>
    <path id="Path_414" data-name="Path 414" d="M804.759,999.483a3.114,3.114,0,1,1,3.113-3.113,3.113,3.113,0,0,1-3.113,3.113" transform="translate(-549.833 -779.392)" fill="#fff"/>
    <path id="Path_415" data-name="Path 415" d="M817.567,999.621a3.253,3.253,0,1,1,3.253-3.253,3.252,3.252,0,0,1-3.253,3.253" transform="translate(-575.256 -779.39)" fill="#fff"/>
    <path id="Path_416" data-name="Path 416" d="M830.376,999.621a3.253,3.253,0,1,1,3.253-3.253,3.253,3.253,0,0,1-3.253,3.253" transform="translate(-600.68 -779.39)" fill="#fff"/>
    <path id="Path_417" data-name="Path 417" d="M843.186,999.621a3.253,3.253,0,1,1,3.253-3.253,3.253,3.253,0,0,1-3.253,3.253" transform="translate(-626.106 -779.39)" fill="#fff"/>
    <path id="Path_418" data-name="Path 418" d="M855.995,999.621a3.253,3.253,0,1,1,3.253-3.253,3.253,3.253,0,0,1-3.253,3.253" transform="translate(-651.529 -779.39)" fill="#fff"/>
    <path id="Path_419" data-name="Path 419" d="M868.8,999.621a3.253,3.253,0,1,1,3.253-3.253,3.252,3.252,0,0,1-3.253,3.253" transform="translate(-676.955 -779.39)" fill="#fff"/>
    <path id="Path_420" data-name="Path 420" d="M881.615,999.621a3.253,3.253,0,1,1,3.253-3.253,3.252,3.252,0,0,1-3.253,3.253" transform="translate(-702.381 -779.39)" fill="#fff"/>
    <path id="Path_421" data-name="Path 421" d="M894.424,999.621a3.253,3.253,0,1,1,3.253-3.253,3.252,3.252,0,0,1-3.253,3.253" transform="translate(-727.804 -779.39)" fill="#fff"/>
    <path id="Path_422" data-name="Path 422" d="M907.234,999.621a3.253,3.253,0,1,1,3.253-3.253,3.252,3.252,0,0,1-3.253,3.253" transform="translate(-753.23 -779.39)" fill="#fff"/>
    <path id="Path_423" data-name="Path 423" d="M920.043,999.621a3.253,3.253,0,1,1,3.253-3.253,3.253,3.253,0,0,1-3.253,3.253" transform="translate(-778.654 -779.39)" fill="#fff"/>
    <path id="Path_424" data-name="Path 424" d="M932.853,999.621a3.253,3.253,0,1,1,3.253-3.253,3.253,3.253,0,0,1-3.253,3.253" transform="translate(-804.079 -779.39)" fill="#fff"/>
    <path id="Path_425" data-name="Path 425" d="M945.662,999.621a3.253,3.253,0,1,1,3.254-3.253,3.254,3.254,0,0,1-3.254,3.253" transform="translate(-829.504 -779.39)" fill="#fff"/>
    <path id="Path_426" data-name="Path 426" d="M958.472,999.621a3.253,3.253,0,1,1,3.253-3.253,3.253,3.253,0,0,1-3.253,3.253" transform="translate(-854.929 -779.39)" fill="#fff"/>
    <path id="Path_427" data-name="Path 427" d="M971.282,999.621a3.253,3.253,0,1,1,3.253-3.253,3.253,3.253,0,0,1-3.253,3.253" transform="translate(-880.354 -779.39)" fill="#fff"/>
    <path id="Path_428" data-name="Path 428" d="M984.091,999.621a3.253,3.253,0,1,1,3.253-3.253,3.253,3.253,0,0,1-3.253,3.253" transform="translate(-905.778 -779.39)" fill="#fff"/>
    <path id="Path_429" data-name="Path 429" d="M996.9,999.621a3.253,3.253,0,1,1,3.253-3.253,3.253,3.253,0,0,1-3.253,3.253" transform="translate(-931.204 -779.39)" fill="#fff"/>
    <path id="Path_430" data-name="Path 430" d="M1009.71,999.621a3.253,3.253,0,1,1,3.253-3.253,3.253,3.253,0,0,1-3.253,3.253" transform="translate(-956.627 -779.39)" fill="#fff"/>
    <path id="Path_431" data-name="Path 431" d="M1022.52,999.621a3.253,3.253,0,1,1,3.253-3.253,3.253,3.253,0,0,1-3.253,3.253" transform="translate(-982.053 -779.39)" fill="#fff"/>
    <path id="Path_432" data-name="Path 432" d="M1035.331,999.483a3.114,3.114,0,1,1,3.113-3.113,3.113,3.113,0,0,1-3.113,3.113" transform="translate(-1007.479 -779.392)" fill="#fff"/>
    <path id="Path_433" data-name="Path 433" d="M1048.181,996.9a.489.489,0,1,1,.49-.489.489.489,0,0,1-.49.489" transform="translate(-1032.945 -779.433)" fill="#fff"/>
    <path id="Path_434" data-name="Path 434" d="M804.786,1010.536a1.33,1.33,0,1,1,1.33-1.33,1.329,1.329,0,0,1-1.33,1.33" transform="translate(-549.86 -779.614)" fill="#fff"/>
    <path id="Path_435" data-name="Path 435" d="M817.567,1012.431a3.253,3.253,0,1,1,3.253-3.253,3.252,3.252,0,0,1-3.253,3.253" transform="translate(-575.256 -779.584)" fill="#fff"/>
    <path id="Path_436" data-name="Path 436" d="M830.376,1012.431a3.253,3.253,0,1,1,3.253-3.253,3.253,3.253,0,0,1-3.253,3.253" transform="translate(-600.68 -779.584)" fill="#fff"/>
    <path id="Path_437" data-name="Path 437" d="M843.186,1012.431a3.253,3.253,0,1,1,3.253-3.253,3.253,3.253,0,0,1-3.253,3.253" transform="translate(-626.106 -779.584)" fill="#fff"/>
    <path id="Path_438" data-name="Path 438" d="M855.995,1012.431a3.253,3.253,0,1,1,3.253-3.253,3.253,3.253,0,0,1-3.253,3.253" transform="translate(-651.529 -779.584)" fill="#fff"/>
    <path id="Path_439" data-name="Path 439" d="M868.8,1012.431a3.253,3.253,0,1,1,3.253-3.253,3.253,3.253,0,0,1-3.253,3.253" transform="translate(-676.955 -779.584)" fill="#fff"/>
    <path id="Path_440" data-name="Path 440" d="M881.615,1012.431a3.253,3.253,0,1,1,3.253-3.253,3.253,3.253,0,0,1-3.253,3.253" transform="translate(-702.381 -779.584)" fill="#fff"/>
    <path id="Path_441" data-name="Path 441" d="M894.424,1012.431a3.253,3.253,0,1,1,3.253-3.253,3.253,3.253,0,0,1-3.253,3.253" transform="translate(-727.804 -779.584)" fill="#fff"/>
    <path id="Path_442" data-name="Path 442" d="M907.234,1012.431a3.253,3.253,0,1,1,3.253-3.253,3.253,3.253,0,0,1-3.253,3.253" transform="translate(-753.23 -779.584)" fill="#fff"/>
    <path id="Path_443" data-name="Path 443" d="M920.043,1012.431a3.253,3.253,0,1,1,3.253-3.253,3.253,3.253,0,0,1-3.253,3.253" transform="translate(-778.654 -779.584)" fill="#fff"/>
    <path id="Path_444" data-name="Path 444" d="M932.853,1012.431a3.253,3.253,0,1,1,3.253-3.253,3.253,3.253,0,0,1-3.253,3.253" transform="translate(-804.079 -779.584)" fill="#fff"/>
    <path id="Path_445" data-name="Path 445" d="M945.662,1012.431a3.253,3.253,0,1,1,3.254-3.253,3.254,3.254,0,0,1-3.254,3.253" transform="translate(-829.504 -779.584)" fill="#fff"/>
    <path id="Path_446" data-name="Path 446" d="M958.472,1012.431a3.253,3.253,0,1,1,3.253-3.253,3.253,3.253,0,0,1-3.253,3.253" transform="translate(-854.929 -779.584)" fill="#fff"/>
    <path id="Path_447" data-name="Path 447" d="M971.282,1012.431a3.253,3.253,0,1,1,3.253-3.253,3.253,3.253,0,0,1-3.253,3.253" transform="translate(-880.354 -779.584)" fill="#fff"/>
    <path id="Path_448" data-name="Path 448" d="M984.091,1012.431a3.253,3.253,0,1,1,3.253-3.253,3.253,3.253,0,0,1-3.253,3.253" transform="translate(-905.778 -779.584)" fill="#fff"/>
    <path id="Path_449" data-name="Path 449" d="M996.9,1012.431a3.253,3.253,0,1,1,3.253-3.253,3.253,3.253,0,0,1-3.253,3.253" transform="translate(-931.204 -779.584)" fill="#fff"/>
    <path id="Path_450" data-name="Path 450" d="M1009.71,1012.431a3.253,3.253,0,1,1,3.253-3.253,3.253,3.253,0,0,1-3.253,3.253" transform="translate(-956.627 -779.584)" fill="#fff"/>
    <path id="Path_451" data-name="Path 451" d="M1022.52,1012.431a3.253,3.253,0,1,1,3.253-3.253,3.253,3.253,0,0,1-3.253,3.253" transform="translate(-982.053 -779.584)" fill="#fff"/>
    <path id="Path_452" data-name="Path 452" d="M1035.358,1010.571a1.364,1.364,0,1,1,1.364-1.364,1.364,1.364,0,0,1-1.364,1.364" transform="translate(-1007.506 -779.614)" fill="#fff"/>
    <path id="Path_453" data-name="Path 453" d="M817.59,1023.759a1.749,1.749,0,1,1,1.749-1.749,1.749,1.749,0,0,1-1.749,1.749" transform="translate(-575.28 -779.802)" fill="#fff"/>
    <path id="Path_454" data-name="Path 454" d="M830.376,1025.24a3.253,3.253,0,1,1,3.253-3.253,3.252,3.252,0,0,1-3.253,3.253" transform="translate(-600.68 -779.779)" fill="#fff"/>
    <path id="Path_455" data-name="Path 455" d="M843.186,1025.24a3.253,3.253,0,1,1,3.253-3.253,3.252,3.252,0,0,1-3.253,3.253" transform="translate(-626.106 -779.779)" fill="#fff"/>
    <path id="Path_456" data-name="Path 456" d="M855.995,1025.24a3.253,3.253,0,1,1,3.253-3.253,3.253,3.253,0,0,1-3.253,3.253" transform="translate(-651.529 -779.779)" fill="#fff"/>
    <path id="Path_457" data-name="Path 457" d="M868.8,1025.24a3.253,3.253,0,1,1,3.253-3.253,3.252,3.252,0,0,1-3.253,3.253" transform="translate(-676.955 -779.779)" fill="#fff"/>
    <path id="Path_458" data-name="Path 458" d="M881.615,1025.24a3.253,3.253,0,1,1,3.253-3.253,3.252,3.252,0,0,1-3.253,3.253" transform="translate(-702.381 -779.779)" fill="#fff"/>
    <path id="Path_459" data-name="Path 459" d="M894.424,1025.24a3.253,3.253,0,1,1,3.253-3.253,3.252,3.252,0,0,1-3.253,3.253" transform="translate(-727.804 -779.779)" fill="#fff"/>
    <path id="Path_460" data-name="Path 460" d="M907.234,1025.24a3.253,3.253,0,1,1,3.253-3.253,3.252,3.252,0,0,1-3.253,3.253" transform="translate(-753.23 -779.779)" fill="#fff"/>
    <path id="Path_461" data-name="Path 461" d="M920.043,1025.24a3.253,3.253,0,1,1,3.253-3.253,3.253,3.253,0,0,1-3.253,3.253" transform="translate(-778.654 -779.779)" fill="#fff"/>
    <path id="Path_462" data-name="Path 462" d="M932.853,1025.24a3.253,3.253,0,1,1,3.253-3.253,3.253,3.253,0,0,1-3.253,3.253" transform="translate(-804.079 -779.779)" fill="#fff"/>
    <path id="Path_463" data-name="Path 463" d="M945.662,1025.24a3.253,3.253,0,1,1,3.254-3.253,3.254,3.254,0,0,1-3.254,3.253" transform="translate(-829.504 -779.779)" fill="#fff"/>
    <path id="Path_464" data-name="Path 464" d="M958.472,1025.24a3.253,3.253,0,1,1,3.253-3.253,3.253,3.253,0,0,1-3.253,3.253" transform="translate(-854.929 -779.779)" fill="#fff"/>
    <path id="Path_465" data-name="Path 465" d="M971.282,1025.24a3.253,3.253,0,1,1,3.253-3.253,3.253,3.253,0,0,1-3.253,3.253" transform="translate(-880.354 -779.779)" fill="#fff"/>
    <path id="Path_466" data-name="Path 466" d="M984.091,1025.24a3.253,3.253,0,1,1,3.253-3.253,3.253,3.253,0,0,1-3.253,3.253" transform="translate(-905.778 -779.779)" fill="#fff"/>
    <path id="Path_467" data-name="Path 467" d="M996.9,1025.24a3.253,3.253,0,1,1,3.253-3.253,3.253,3.253,0,0,1-3.253,3.253" transform="translate(-931.204 -779.779)" fill="#fff"/>
    <path id="Path_468" data-name="Path 468" d="M1009.71,1025.24a3.253,3.253,0,1,1,3.253-3.253,3.253,3.253,0,0,1-3.253,3.253" transform="translate(-956.627 -779.779)" fill="#fff"/>
    <path id="Path_469" data-name="Path 469" d="M1022.545,1023.725a1.714,1.714,0,1,1,1.714-1.715,1.715,1.715,0,0,1-1.714,1.715" transform="translate(-982.078 -779.802)" fill="#fff"/>
    <path id="Path_470" data-name="Path 470" d="M830.406,1036.121a1.295,1.295,0,1,1,1.294-1.294,1.294,1.294,0,0,1-1.294,1.294" transform="translate(-600.71 -780.003)" fill="#fff"/>
    <path id="Path_471" data-name="Path 471" d="M843.187,1037.946a3.148,3.148,0,1,1,3.149-3.149,3.148,3.148,0,0,1-3.149,3.149" transform="translate(-626.107 -779.975)" fill="#fff"/>
    <path id="Path_472" data-name="Path 472" d="M855.995,1038.05a3.253,3.253,0,1,1,3.253-3.253,3.253,3.253,0,0,1-3.253,3.253" transform="translate(-651.529 -779.973)" fill="#fff"/>
    <path id="Path_473" data-name="Path 473" d="M868.8,1038.05a3.253,3.253,0,1,1,3.253-3.253,3.253,3.253,0,0,1-3.253,3.253" transform="translate(-676.955 -779.973)" fill="#fff"/>
    <path id="Path_474" data-name="Path 474" d="M881.615,1038.05a3.253,3.253,0,1,1,3.253-3.253,3.253,3.253,0,0,1-3.253,3.253" transform="translate(-702.381 -779.973)" fill="#fff"/>
    <path id="Path_475" data-name="Path 475" d="M894.424,1038.05a3.253,3.253,0,1,1,3.253-3.253,3.253,3.253,0,0,1-3.253,3.253" transform="translate(-727.804 -779.973)" fill="#fff"/>
    <path id="Path_476" data-name="Path 476" d="M907.234,1038.05a3.253,3.253,0,1,1,3.253-3.253,3.252,3.252,0,0,1-3.253,3.253" transform="translate(-753.23 -779.973)" fill="#fff"/>
    <path id="Path_477" data-name="Path 477" d="M920.043,1038.05a3.253,3.253,0,1,1,3.253-3.253,3.253,3.253,0,0,1-3.253,3.253" transform="translate(-778.654 -779.973)" fill="#fff"/>
    <path id="Path_478" data-name="Path 478" d="M932.853,1038.05a3.253,3.253,0,1,1,3.253-3.253,3.253,3.253,0,0,1-3.253,3.253" transform="translate(-804.079 -779.973)" fill="#fff"/>
    <path id="Path_479" data-name="Path 479" d="M945.662,1038.05a3.253,3.253,0,1,1,3.254-3.253,3.254,3.254,0,0,1-3.254,3.253" transform="translate(-829.504 -779.973)" fill="#fff"/>
    <path id="Path_480" data-name="Path 480" d="M958.472,1038.05a3.253,3.253,0,1,1,3.253-3.253,3.253,3.253,0,0,1-3.253,3.253" transform="translate(-854.929 -779.973)" fill="#fff"/>
    <path id="Path_481" data-name="Path 481" d="M971.282,1038.05a3.253,3.253,0,1,1,3.253-3.253,3.253,3.253,0,0,1-3.253,3.253" transform="translate(-880.354 -779.973)" fill="#fff"/>
    <path id="Path_482" data-name="Path 482" d="M984.091,1038.05a3.253,3.253,0,1,1,3.253-3.253,3.253,3.253,0,0,1-3.253,3.253" transform="translate(-905.778 -779.973)" fill="#fff"/>
    <path id="Path_483" data-name="Path 483" d="M996.9,1037.912a3.114,3.114,0,1,1,3.113-3.113,3.113,3.113,0,0,1-3.113,3.113" transform="translate(-931.206 -779.975)" fill="#fff"/>
    <path id="Path_484" data-name="Path 484" d="M1009.739,1036.19a1.365,1.365,0,1,1,1.364-1.364,1.364,1.364,0,0,1-1.364,1.364" transform="translate(-956.657 -780.002)" fill="#fff"/>
    <path id="Path_485" data-name="Path 485" d="M843.228,1048.138a.489.489,0,1,1,.49-.489.489.489,0,0,1-.49.489" transform="translate(-626.148 -780.21)" fill="#fff"/>
    <path id="Path_486" data-name="Path 486" d="M856.012,1049.757a2.134,2.134,0,1,1,2.134-2.134,2.134,2.134,0,0,1-2.134,2.134" transform="translate(-651.547 -780.185)" fill="#fff"/>
    <path id="Path_487" data-name="Path 487" d="M868.806,1050.791a3.184,3.184,0,1,1,3.183-3.183,3.183,3.183,0,0,1-3.183,3.183" transform="translate(-676.956 -780.169)" fill="#fff"/>
    <path id="Path_488" data-name="Path 488" d="M881.615,1050.86a3.253,3.253,0,1,1,3.253-3.253,3.252,3.252,0,0,1-3.253,3.253" transform="translate(-702.381 -780.167)" fill="#fff"/>
    <path id="Path_489" data-name="Path 489" d="M894.424,1050.86a3.253,3.253,0,1,1,3.253-3.253,3.252,3.252,0,0,1-3.253,3.253" transform="translate(-727.804 -780.167)" fill="#fff"/>
    <path id="Path_490" data-name="Path 490" d="M907.234,1050.86a3.253,3.253,0,1,1,3.253-3.253,3.252,3.252,0,0,1-3.253,3.253" transform="translate(-753.23 -780.167)" fill="#fff"/>
    <path id="Path_491" data-name="Path 491" d="M920.043,1050.86a3.253,3.253,0,1,1,3.253-3.253,3.253,3.253,0,0,1-3.253,3.253" transform="translate(-778.654 -780.167)" fill="#fff"/>
    <path id="Path_492" data-name="Path 492" d="M932.853,1050.86a3.253,3.253,0,1,1,3.253-3.253,3.253,3.253,0,0,1-3.253,3.253" transform="translate(-804.079 -780.167)" fill="#fff"/>
    <path id="Path_493" data-name="Path 493" d="M945.662,1050.86a3.253,3.253,0,1,1,3.254-3.253,3.254,3.254,0,0,1-3.254,3.253" transform="translate(-829.504 -780.167)" fill="#fff"/>
    <path id="Path_494" data-name="Path 494" d="M958.472,1050.86a3.253,3.253,0,1,1,3.253-3.253,3.253,3.253,0,0,1-3.253,3.253" transform="translate(-854.929 -780.167)" fill="#fff"/>
    <path id="Path_495" data-name="Path 495" d="M971.282,1050.825a3.218,3.218,0,1,1,3.218-3.218,3.218,3.218,0,0,1-3.218,3.218" transform="translate(-880.355 -780.168)" fill="#fff"/>
    <path id="Path_496" data-name="Path 496" d="M984.108,1049.791a2.169,2.169,0,1,1,2.169-2.168,2.168,2.168,0,0,1-2.169,2.168" transform="translate(-905.795 -780.184)" fill="#fff"/>
    <path id="Path_497" data-name="Path 497" d="M996.943,1048.138a.489.489,0,1,1,.489-.489.489.489,0,0,1-.489.489" transform="translate(-931.246 -780.21)" fill="#fff"/>
    <path id="Path_498" data-name="Path 498" d="M868.849,1060.844a.385.385,0,1,1,.385-.385.385.385,0,0,1-.385.385" transform="translate(-676.999 -780.406)" fill="#fff"/>
    <path id="Path_499" data-name="Path 499" d="M881.643,1061.843a1.4,1.4,0,1,1,1.4-1.4,1.4,1.4,0,0,1-1.4,1.4" transform="translate(-702.409 -780.39)" fill="#fff"/>
    <path id="Path_500" data-name="Path 500" d="M894.442,1062.532a2.1,2.1,0,1,1,2.1-2.1,2.1,2.1,0,0,1-2.1,2.1" transform="translate(-727.822 -780.38)" fill="#fff"/>
    <path id="Path_501" data-name="Path 501" d="M907.245,1062.98a2.554,2.554,0,1,1,2.554-2.554,2.554,2.554,0,0,1-2.554,2.554" transform="translate(-753.241 -780.373)" fill="#fff"/>
    <path id="Path_502" data-name="Path 502" d="M920.053,1063.049a2.624,2.624,0,1,1,2.624-2.624,2.624,2.624,0,0,1-2.624,2.624" transform="translate(-778.663 -780.371)" fill="#fff"/>
    <path id="Path_503" data-name="Path 503" d="M932.864,1062.945a2.519,2.519,0,1,1,2.518-2.518,2.518,2.518,0,0,1-2.518,2.518" transform="translate(-804.091 -780.373)" fill="#fff"/>
    <path id="Path_504" data-name="Path 504" d="M945.68,1062.532a2.1,2.1,0,1,1,2.1-2.1,2.1,2.1,0,0,1-2.1,2.1" transform="translate(-829.522 -780.38)" fill="#fff"/>
    <path id="Path_505" data-name="Path 505" d="M958.5,1061.843a1.4,1.4,0,1,1,1.4-1.4,1.4,1.4,0,0,1-1.4,1.4" transform="translate(-854.957 -780.39)" fill="#fff"/>
    <path id="Path_506" data-name="Path 506" d="M971.325,1060.879a.419.419,0,1,1,.42-.42.42.42,0,0,1-.42.42" transform="translate(-880.398 -780.405)" fill="#fff"/>
  </g>
</svg>
